<svg width="48" height="48" viewBox="0 0 48 48" fill="none" xmlns="http://www.w3.org/2000/svg">
<g clip-path="url(#clip0_2455_8066)">
<path fill-rule="evenodd" clip-rule="evenodd" d="M6.9469 3.73133V0H7.46303V3.73133H17.9289V0H18.445V3.73133H28.8564V0H29.3725V3.73133H39.7838V0H40.3V3.73133H45.6774V4.25025H40.3V14.6978H45.6741V15.2167H40.3V22.8616H48V48H0V14.6978H6.9469V4.25025H3.8024V3.73133H6.9469ZM7.46303 4.25025V14.6978H17.9289V4.25025H7.46303ZM18.445 4.25025V14.6978H28.8564V4.25025H18.445ZM29.3725 4.25025V14.6978H39.7838V4.25025H29.3725ZM39.7838 15.2167H29.3725V22.8616H39.7838V15.2167ZM28.8564 22.8616V15.2167H24.2672V22.8616H28.8564ZM23.7511 15.2167H0.516129V47.4811H47.4839V23.3805H23.7511V15.2167ZM6.34709 19.5654H11.0105V24.2395H6.34709V19.5654ZM6.86322 20.0843V23.7205H10.4944V20.0843H6.86322ZM14.5481 19.5654H19.2116V24.2395H14.5481V19.5654ZM15.0643 20.0843V23.7205H18.6954V20.0843H15.0643ZM6.34709 29.2515H11.0105V33.9255H6.34709V29.2515ZM6.86322 29.7704V33.4066H10.4944V29.7704H6.86322ZM14.5481 29.2515H19.2116V33.9255H14.5481V29.2515ZM15.0643 29.7704V33.4066H18.6954V29.7704H15.0643ZM28.8564 29.2515H33.5198V33.9255H28.8564V29.2515ZM29.3725 29.7704V33.4066H33.0037V29.7704H29.3725ZM38.2352 29.2515H42.8987V33.9255H38.2352V29.2515ZM38.7514 29.7704V33.4066H42.3825V29.7704H38.7514ZM6.34709 39.5173H11.0105V44.1914H6.34709V39.5173ZM6.86322 40.0363V43.6724H10.4944V40.0363H6.86322ZM14.5481 39.5173H19.2116V44.1914H14.5481V39.5173ZM15.0643 40.0363V43.6724H18.6954V40.0363H15.0643ZM28.8564 39.5173H33.5198V44.1914H28.8564V39.5173ZM29.3725 40.0363V43.6724H33.0037V40.0363H29.3725ZM38.2352 39.5173H42.8987V44.1914H38.2352V39.5173ZM38.7514 40.0363V43.6724H42.3825V40.0363H38.7514Z" fill="#556575"/>
</g>
<defs>
<clipPath id="clip0_2455_8066">
<rect width="48" height="48" fill="white"/>
</clipPath>
</defs>
</svg>
