<svg width="34" height="34" viewBox="0 0 34 34" fill="none" xmlns="http://www.w3.org/2000/svg">
<g clip-path="url(#clip0_2450_636)">
<path d="M0 11.9048H34M8.99738 16.6841C9.26767 16.6841 9.53526 16.7452 9.78448 16.864C10.0337 16.9827 10.2596 17.1567 10.4488 17.3757C10.6381 17.5947 10.787 17.8544 10.8868 18.1395C10.9866 18.4246 11.0353 18.7295 11.03 19.0362V27.8152H6.97797V19.0362C6.97272 18.7307 7.02098 18.4271 7.11995 18.143C7.21892 17.8588 7.36663 17.5999 7.55449 17.381C7.74236 17.1622 7.96666 16.9879 8.21435 16.8683C8.46204 16.7487 8.7282 16.6861 8.99738 16.6841ZM18.4506 17.3757C18.6399 17.5947 18.7888 17.8544 18.8886 18.1395C18.9884 18.4246 19.0371 18.7295 19.0318 19.0362V27.8152H14.9798V19.0362C14.9798 18.4243 15.1939 17.8375 15.5751 17.4048C16.3384 16.5385 17.7052 16.5132 18.4506 17.3757ZM24.998 16.6841C25.2672 16.6861 25.5334 16.7487 25.7811 16.8683C26.0288 16.9879 26.2531 17.1622 26.4409 17.381C26.6288 17.5999 26.7765 17.8588 26.8755 18.143C26.9744 18.4271 27.0227 18.7307 27.0175 19.0362V27.8152H22.9654V19.0362C22.9602 18.7295 23.0089 18.4246 23.1086 18.1395C23.2084 17.8544 23.3573 17.5947 23.5466 17.3757C23.7359 17.1567 23.9617 16.9827 24.2109 16.864C24.4602 16.7452 24.7278 16.6841 24.998 16.6841ZM2.92144 27.7564V7.65165L17.1101 1L31.0612 7.65165V27.7564H2.92144ZM0.855262 27.7566H33.1262V33H0.855262V27.7566Z" stroke="#5A6778" stroke-width="0.5" stroke-miterlimit="10"/>
</g>
<defs>
<clipPath id="clip0_2450_636">
<rect width="34" height="34" fill="white"/>
</clipPath>
</defs>
</svg>
