<svg width="48" height="48" viewBox="0 0 48 48" fill="none" xmlns="http://www.w3.org/2000/svg">
<g clip-path="url(#clip0_2455_8066)">
<path fill-rule="evenodd" clip-rule="evenodd" d="M44.7607 0.0975096C45.2233 -0.0388586 45.7119 -0.0320483 46.171 0.117033C46.6299 0.266032 47.0387 0.550405 47.3535 0.935018C47.6682 1.31946 47.8774 1.78961 47.9601 2.29244C48.0429 2.79525 47.9964 3.31347 47.8253 3.7901L47.824 3.79357L36.1504 34.9049C35.9886 35.334 35.7289 35.7141 35.3938 36.0078C35.0586 36.3015 34.6585 36.4995 34.2305 36.5806C33.8023 36.6617 33.3625 36.6229 32.9527 36.4682C32.5432 36.3137 32.1788 36.0492 31.8922 35.7021L23.1589 25.1065L15.1264 33.0224L17.7861 36.2498L7.06728 46.8097C6.23559 47.6291 5.13515 48.0579 4.00737 47.9937C2.87981 47.9295 1.82761 47.3784 1.07966 46.4708C0.332324 45.5639 -0.0519986 44.3739 0.00566428 43.1628C0.0633287 41.9517 0.558723 40.8105 1.38961 39.9919L12.1411 29.3998L14.7969 32.6225L22.8293 24.7067L14.0934 14.1079C13.8063 13.7605 13.606 13.3411 13.5093 12.8896C13.4126 12.438 13.4222 11.9673 13.5373 11.5207C13.6524 11.0741 13.8698 10.6645 14.1711 10.331C14.4726 9.99748 14.8486 9.75074 15.2652 9.61649L44.7607 0.0975096ZM23.528 24.7428L27.598 20.7319L27.2357 20.3643L23.1984 24.343L14.4915 13.7794C14.2591 13.4982 14.094 13.1548 14.014 12.7815C13.934 12.4081 13.942 12.0184 14.0371 11.6495C14.1322 11.2806 14.3107 10.9463 14.554 10.6771C14.7972 10.408 15.0968 10.213 15.4235 10.1077L44.9097 0.591676C45.2714 0.485721 45.6524 0.491289 46.0116 0.607929C46.3721 0.724981 46.699 0.950245 46.9541 1.26195C47.2094 1.57382 47.3822 1.95936 47.4508 2.37625C47.5193 2.79252 47.4808 3.22118 47.3401 3.61395C47.3399 3.61454 47.3397 3.61513 47.3395 3.61572L35.6674 34.7232C35.5342 35.0763 35.3223 35.3842 35.0537 35.6196C34.7852 35.8548 34.4687 36.0101 34.1344 36.0735C33.8002 36.1368 33.4566 36.1067 33.135 35.9853C32.8131 35.8639 32.522 35.6542 32.2901 35.3734L23.528 24.7428ZM14.4278 32.9862L12.1015 30.1633L1.75183 40.3596C1.01814 41.0824 0.573031 42.099 0.521209 43.1874C0.469386 44.2758 0.815564 45.3388 1.47797 46.1426C2.13978 46.9457 3.06109 47.4229 4.0367 47.4784C5.01209 47.5339 5.97217 47.164 6.70506 46.442L17.0874 36.2136L14.7574 33.3861L14.7028 33.4398L14.3405 33.0722L14.4278 32.9862Z" fill="#556575"/>
</g>
<defs>
<clipPath id="clip0_2455_8066">
<rect width="48" height="48" fill="white"/>
</clipPath>
</defs>
</svg>
