<svg width="48" height="48" viewBox="0 0 48 48" fill="none" xmlns="http://www.w3.org/2000/svg">
<g clip-path="url(#clip0_2454_4416)">
<path fill-rule="evenodd" clip-rule="evenodd" d="M10.0137 4.4007C8.86799 6.56382 8.6087 9.14196 8.6087 10.7636V44.3869H10.4944C12.7865 44.3869 14.6873 45.7202 14.8572 47.4839H21.843L21.669 44.903H18.5217V36.1288H46.1739V44.903H43.0267L42.8528 47.4839H48V48H0V47.4839H1.83845C2.00783 45.7255 3.89348 44.3869 6.02238 44.3869H8.08696V10.7636C8.08696 9.1055 8.3494 6.43086 9.55154 4.16116C10.1544 3.02296 10.997 1.98018 12.1669 1.22244C13.3384 0.463634 14.8239 0 16.6957 0C20.4393 0 22.6115 1.59581 23.8327 3.61952C24.9631 5.49275 25.2662 7.70989 25.3008 9.30402C26.3907 9.42156 27.2565 10.277 27.377 11.3547H28.8663L32.7467 20.1289H17.3403L21.2207 11.3547H22.71C22.8301 10.2794 23.6924 9.42531 24.779 9.3048C24.7442 7.75605 24.4477 5.64558 23.3847 3.88407C22.2581 2.01708 20.2564 0.516129 16.6957 0.516129C14.9152 0.516129 13.5311 0.955718 12.4527 1.65424C11.3726 2.35382 10.5848 3.32248 10.0137 4.4007ZM23.2359 11.3547H26.8511C26.7245 10.4793 25.9634 9.80635 25.0435 9.80635C24.1235 9.80635 23.3625 10.4793 23.2359 11.3547ZM14.3317 47.4836C14.1589 46.1009 12.6121 44.903 10.4944 44.903H6.02238C4.08047 44.903 2.53628 46.0958 2.36385 47.4836H14.3317ZM42.3299 47.4836L42.5038 44.903H40.9745L41.1485 47.4836H42.3299ZM40.4516 44.903L40.6256 47.4839H24.0702L24.2441 44.903H40.4516ZM45.6522 44.3869V38.7095H19.0435V44.3869H45.6522ZM19.0435 38.1934H45.6522V36.645H19.0435V38.1934ZM23.7212 44.903H22.1919L22.3659 47.4836H23.5473L23.7212 44.903ZM21.5619 11.8709L18.138 19.6128H31.949L28.525 11.8709H21.5619ZM22.7528 26.8386H41.9428L43.508 33.0321H46.1739V35.6127H41.4783V33.0321H42.9702L41.5354 27.3547H23.1602L21.7254 33.0321H23.2174V35.6127H18.5217V33.0321H21.1876L22.7528 26.8386ZM19.0435 33.5482V35.0966H22.6957V33.5482H19.0435ZM42 33.5482V35.0966H45.6522V33.5482H42Z" fill="#556575"/>
</g>
<defs>
<clipPath id="clip0_2454_4416">
<rect width="48" height="48" fill="white"/>
</clipPath>
</defs>
</svg>
