<svg width="48" height="48" viewBox="0 0 48 48" fill="none" xmlns="http://www.w3.org/2000/svg">
<path fill-rule="evenodd" clip-rule="evenodd" d="M9.58239 0.516129C7.33884 0.516129 5.52055 2.31758 5.52055 4.53926V37.4828H42.2507V37.9989H5.52055V43.4607C5.52055 45.6824 7.33884 47.4839 9.58239 47.4839H38.4176C40.6612 47.4839 42.4795 45.6824 42.4795 43.4607V4.53926C42.4795 2.31758 40.6612 0.516129 38.4176 0.516129H9.58239ZM5 4.53926C5 2.03205 7.05184 0 9.58239 0H38.4176C40.9482 0 43 2.03205 43 4.53926V43.4607C43 45.968 40.9482 48 38.4176 48H9.58239C7.05184 48 5 45.968 5 43.4607V4.53926ZM27.8112 6.17212L27.7123 6.54263C27.4117 7.66945 27.3462 8.84518 27.52 9.9979C27.6935 11.1489 28.1019 12.2529 28.7202 13.2425C29.031 13.697 29.4939 14.2144 30.0318 14.8155C30.1559 14.9541 30.2839 15.0971 30.4149 15.2449C31.108 16.0264 31.8703 16.9234 32.5139 17.9388C33.8052 19.9762 34.6268 22.5059 33.4786 25.5647C33.0564 26.7422 32.3957 27.8218 31.5368 28.737C30.6775 29.6527 29.6381 30.3845 28.4827 30.8875C27.3272 31.3905 26.0801 31.654 24.8181 31.6618C23.5583 31.6695 22.3102 31.4223 21.1503 30.9354C18.9857 30.1543 17.1247 28.717 15.832 26.8279C14.538 24.9369 13.8794 22.6895 13.9502 20.4061L13.9503 20.4018H13.9504C14.014 19.0648 14.3547 17.755 14.9513 16.5539C15.5478 15.3529 16.3874 14.2862 17.4178 13.4203L17.891 13.0227L17.8456 13.6361L17.8456 13.6361L17.8456 13.6362L17.8456 13.6368L17.8454 13.6397L17.8445 13.6518L17.8414 13.7003C17.8387 13.743 17.835 13.806 17.831 13.8866C17.823 14.0477 17.8137 14.2784 17.8088 14.5558C17.7991 15.1114 17.807 15.8501 17.8768 16.5892C17.947 17.3328 18.0781 18.0566 18.3052 18.5929C18.5361 19.1383 18.8261 19.4054 19.1751 19.4218C19.5059 19.4361 19.7295 19.3851 19.8852 19.2997C20.0366 19.2166 20.1481 19.0877 20.2319 18.8971C20.3181 18.7011 20.372 18.4458 20.4043 18.1245C20.4364 17.8045 20.4456 17.4359 20.4511 17.0181C20.4522 16.9298 20.4532 16.8394 20.4542 16.7472C20.4717 15.1071 20.4955 12.8809 21.6558 10.5408C22.1538 9.38591 22.9477 8.3799 23.9589 7.62232C24.9719 6.86333 26.1678 6.3801 27.4277 6.22065L27.8112 6.17212ZM17.2963 14.2256C16.5278 14.9635 15.892 15.8279 15.4182 16.7819C14.8536 17.9188 14.531 19.1585 14.4705 20.4241C14.4035 22.5981 15.0307 24.7376 16.2627 26.5381C17.4952 28.3392 19.27 29.7091 21.3345 30.4526L21.3474 30.4572L21.3473 30.4576C22.4437 30.9188 23.6237 31.153 24.8148 31.1457C26.006 31.1383 27.183 30.8896 28.2734 30.4149C29.3639 29.9402 30.3448 29.2496 31.1557 28.3854C31.9666 27.5213 32.5904 26.5019 32.9888 25.3901L32.9901 25.3864C34.0651 22.5242 33.3094 20.1639 32.0731 18.2135C31.4528 17.2347 30.7136 16.3632 30.024 15.5857C29.8989 15.4446 29.7748 15.3061 29.6531 15.1701C29.1121 14.5658 28.6181 14.0139 28.2862 13.5274L28.2804 13.519L28.2806 13.5189C27.6234 12.4685 27.1894 11.2964 27.0052 10.0742C26.8404 8.98118 26.8785 7.86864 27.1163 6.79114C26.0856 6.98071 25.1116 7.40559 24.2727 8.03411C23.3321 8.73883 22.594 9.67504 22.1318 10.7497L22.1262 10.7627L22.1259 10.7625C21.0162 12.9971 20.9927 15.1208 20.9746 16.7652C20.9736 16.8531 20.9727 16.9397 20.9716 17.0248C20.9661 17.442 20.9569 17.8309 20.9223 18.1757C20.8878 18.5191 20.8268 18.8357 20.7091 19.1033C20.5891 19.3763 20.408 19.6027 20.1372 19.7513C19.8708 19.8975 19.5429 19.9544 19.1521 19.9375L19.1513 19.9374C18.491 19.9068 18.0792 19.3926 17.8252 18.7927C17.5673 18.1836 17.4302 17.3976 17.3585 16.6373C17.2863 15.8725 17.2784 15.1132 17.2884 14.5468C17.2904 14.4314 17.2932 14.3238 17.2963 14.2256Z" fill="#556575"/>
</svg>
