<svg width="48" height="48" viewBox="0 0 48 48" fill="none" xmlns="http://www.w3.org/2000/svg">
<g clip-path="url(#clip0_2454_4416)">
<path fill-rule="evenodd" clip-rule="evenodd" d="M4.12901 0H43.6643V19.5823H4.12901V0ZM4.64514 0.518051V15.1917L15.4944 9.57163L24.8997 11.6265L36.2021 5.7032L43.1482 8.07882V0.518051H4.64514ZM43.1482 8.62612L36.245 6.26515L24.9728 12.1726L15.566 10.1175L4.64514 15.7746V19.0643H43.1482V8.62612ZM45.0979 21.8138C45.1326 21.7072 45.2316 21.6351 45.3433 21.6351H47.4562C47.5815 21.6351 47.6887 21.7254 47.7104 21.8492L47.4562 21.8941C47.7104 21.8492 47.7104 21.8491 47.7104 21.8492L47.7108 21.8517L47.7119 21.8578L47.7157 21.8809C47.7191 21.9011 47.7239 21.9307 47.7299 21.9694C47.7418 22.0467 47.7586 22.1601 47.7779 22.3061C47.8166 22.598 47.8658 23.0203 47.908 23.5447C47.9924 24.5932 48.0492 26.0519 47.939 27.6939C47.719 30.9696 46.8312 35.0158 44.1244 37.9709C43.3054 38.865 42.4289 39.5566 41.525 40.0813L44.1791 47.8302L43.691 47.9986L41.0654 40.3328C40.7016 40.52 40.3343 40.6817 39.9653 40.82V46.0051H36.8912L30.0808 46.0052L29.3865 47.9997L28.8992 47.8288L29.534 46.0052H15.389L15.9849 47.8392L15.4942 47.9998L14.8462 46.0052H3.07741L2.18377 46.0051L1.53567 48L1.04497 47.8394L1.64089 46.0051H0V31.0312H2.81934V22.3577H37.149V31.0312H39.9653V34.152C40.2388 33.8554 40.4637 33.4977 40.6876 33.0678C40.8483 32.7593 41.0008 32.4299 41.1691 32.0664C41.2965 31.7913 41.4329 31.4966 41.5888 31.1767C42.2858 29.746 43.1621 27.4099 43.867 25.4213C44.2187 24.4291 44.5265 23.527 44.7464 22.8729C44.8563 22.5459 44.9443 22.281 45.0047 22.0979C45.0349 22.0063 45.0582 21.9352 45.074 21.887L45.0919 21.8323L45.0976 21.8149L45.0979 21.8138ZM45.5301 22.1532C45.5196 22.1851 45.5078 22.221 45.4947 22.2607C45.434 22.4447 45.3457 22.7105 45.2354 23.0386C45.0149 23.6945 44.7062 24.5994 44.3533 25.5949C43.649 27.5817 42.7639 29.9438 42.0524 31.4042C41.9079 31.7009 41.774 31.9898 41.6463 32.2653C41.4714 32.6423 41.3082 32.9945 41.145 33.3078C40.8566 33.8616 40.5447 34.3446 40.1093 34.736C40.0626 34.778 40.0146 34.8188 39.9653 34.8584V34.9042H39.907C39.0299 35.5771 37.7341 35.8862 35.4805 35.8862H28.6081C28.5896 35.9355 28.5684 35.996 28.5465 36.0661C28.4866 36.2577 28.4231 36.5176 28.3971 36.8139H28.436V37.3319H28.3951C28.4434 37.8988 28.6738 38.5195 29.3049 39.0412C30.1298 39.7231 32.4493 40.7924 35.2237 40.9704C37.0299 41.0862 39.0152 40.8235 40.8957 39.8374L40.8759 39.7796L41.2138 39.6631C42.0941 39.1592 42.9475 38.4903 43.7445 37.6203C46.3341 34.793 47.2072 30.8885 47.424 27.6591C47.5322 26.0485 47.4764 24.6161 47.3935 23.5865C47.3521 23.0719 47.304 22.6585 47.2663 22.3744C47.2549 22.2886 47.2445 22.2146 47.2355 22.1532H45.5301ZM27.8793 36.8137C27.9067 36.4524 27.983 36.1383 28.054 35.9111C28.0916 35.7906 28.128 35.6936 28.1555 35.6258C28.1692 35.5918 28.1807 35.5651 28.189 35.5464L28.1991 35.5242L28.2021 35.5178L28.203 35.5158L28.2035 35.5148C28.2036 35.5146 28.2036 35.5145 28.436 35.6272L28.2035 35.5148C28.2466 35.4253 28.337 35.3682 28.436 35.3682H33.8136V34.4408H20.2439V36.8137H27.8793ZM33.8136 33.9224V31.0312H36.6329V22.8758H20.2424V33.9224H33.8136ZM19.7262 33.9224V22.8758H3.33547V31.0312H6.15176V33.9224H19.7262ZM6.15176 34.4408V36.8139H19.722L19.7245 36.8137V34.4408H6.15176ZM19.722 37.3319H6.15176V38.1285H15.9999V41.824H14.0307L15.2207 45.4871H19.722V37.3319ZM20.2439 45.4871H29.7144L31.3837 40.6914C30.2906 40.2962 29.4424 39.8261 28.9768 39.4411C28.1994 38.7985 27.9273 38.0201 27.8776 37.3319H20.2439V45.4871ZM31.8726 40.8576L30.2611 45.4871H33.8136V41.3272C33.1199 41.2107 32.4668 41.047 31.8726 40.8576ZM34.3297 41.4039V45.487H39.4492V40.9983C38.0023 41.4564 36.5446 41.5742 35.1908 41.4874C34.8989 41.4686 34.6115 41.4404 34.3297 41.4039ZM14.6779 45.4871L13.4878 41.824H6.15176V45.4871H14.6779ZM5.63563 45.487V41.824H3.54211L2.35207 45.487H5.63563ZM1.80919 45.487L2.99924 41.824H1.03225V38.1285H5.63563V31.5492H0.516129V45.487H1.80919ZM34.3297 35.3682H35.4805C37.566 35.3682 38.7071 35.096 39.4492 34.5963V31.5492H34.3297V35.3682ZM1.54838 38.6466V41.3059H15.4838V38.6466H1.54838Z" fill="#556575"/>
</g>
<defs>
<clipPath id="clip0_2454_4416">
<rect width="48" height="48" fill="white"/>
</clipPath>
</defs>
</svg>
