<svg width="48" height="48" viewBox="0 0 48 48" fill="none" xmlns="http://www.w3.org/2000/svg">
<g clip-path="url(#clip0_2454_4416)">
<path fill-rule="evenodd" clip-rule="evenodd" d="M24 0.00359512C26.0101 -0.058423 28.0407 0.681956 29.5749 2.22423L45.7881 18.5234C48.7373 21.4883 48.7373 26.2948 45.7881 29.2596C43.3097 31.7511 39.5373 32.1495 36.6452 30.4546V35.3548C36.6452 42.3386 30.9837 48 24 48C17.0163 48 11.3548 42.3386 11.3548 35.3548V30.4546C8.4627 32.1495 4.69028 31.7511 2.21193 29.2596C-0.737308 26.2948 -0.737309 21.4883 2.21192 18.5234L18.4251 2.22423C19.9593 0.681956 21.9899 -0.058423 24 0.00359512ZM11.6072 29.6774H11.3548V29.8485C8.63038 31.6099 4.96187 31.2923 2.57787 28.8957C-0.171094 26.1321 -0.171094 21.651 2.57786 18.8874L13.6258 7.78083L23.635 17.79L12.5299 28.8952C12.2401 29.1865 11.9309 29.4475 11.6072 29.6774ZM11.871 30.1231V35.3548C11.871 42.0535 17.3013 47.4839 24 47.4839C30.6987 47.4839 36.129 42.0535 36.129 35.3548V30.1231C35.7691 29.8705 35.4262 29.5829 35.105 29.26C35.1049 29.2599 35.1051 29.2601 35.105 29.26L24 18.155L12.8954 29.2596C12.5741 29.5826 12.231 29.8705 11.871 30.1231ZM36.6452 29.8485V29.6774H36.3928C36.0691 29.4475 35.7603 29.187 35.4706 28.8957L13.9898 7.4149L18.7911 2.58821C20.2225 1.14914 22.1165 0.459813 23.9918 0.51972L24 0.519983L24.0082 0.51972C25.8835 0.459813 27.7775 1.14914 29.2089 2.58821L45.4221 18.8874C48.1711 21.651 48.1711 26.1321 45.4221 28.8957C43.0381 31.2923 39.3696 31.6099 36.6452 29.8485ZM44.3886 3.09677V0.258064H44.9048V3.09677H47.7435V3.6129H44.9048V6.45161H44.3886V3.6129H41.5499V3.09677H44.3886ZM18.6601 29.4194C17.4245 29.4194 16.3727 30.2089 15.9828 31.3118L15.4962 31.1398C15.9566 29.8371 17.199 28.9032 18.6601 28.9032C20.1212 28.9032 21.3635 29.8371 21.824 31.1398L21.3373 31.3118C20.9475 30.2089 19.8957 29.4194 18.6601 29.4194ZM28.9827 29.4194C27.7471 29.4194 26.6952 30.2089 26.3054 31.3118L25.8188 31.1398C26.2792 29.8371 27.5215 28.9032 28.9827 28.9032C30.4438 28.9032 31.6861 29.8371 32.1465 31.1398L31.6599 31.3118C31.2701 30.2089 30.2182 29.4194 28.9827 29.4194ZM3.09832 36.129V33.2903H3.61446V36.129H6.45316V36.6452H3.61446V39.4839H3.09832V36.6452H0.259616V36.129H3.09832ZM20.129 39.4839C20.129 41.6218 21.8621 43.3548 24 43.3548C26.1379 43.3548 27.871 41.6218 27.871 39.4839H28.3871C28.3871 41.9068 26.4229 43.871 24 43.871C21.5771 43.871 19.6129 41.9068 19.6129 39.4839H20.129ZM41.2918 44.3871V41.5484H41.808V44.3871H44.6467V44.9032H41.808V47.7419H41.2918V44.9032H38.4531V44.3871H41.2918Z" fill="#556575"/>
</g>
<defs>
<clipPath id="clip0_2454_4416">
<rect width="48" height="48" fill="white"/>
</clipPath>
</defs>
</svg>
