<svg width="48" height="48" viewBox="0 0 48 48" fill="none" xmlns="http://www.w3.org/2000/svg">
<path fill-rule="evenodd" clip-rule="evenodd" d="M4.08924 0.660001C3.30842 0.660001 2.67765 1.27383 2.67765 2.02842V11.283H7.02061V5.91351H7.69826V11.283H22.5008V2.02842C22.5008 1.27383 21.87 0.660001 21.0892 0.660001H12.0636V6.79265H11.386V0.660001H4.08924ZM22.5008 11.943H2.67765V16.5082C2.67765 17.2628 3.30843 17.8767 4.08924 17.8767H9.56425L15.8367 17.8766L21.0892 17.8767C21.87 17.8767 22.5008 17.2628 22.5008 16.5082V11.943ZM15.8367 18.5367H21.0892C22.2418 18.5367 23.1784 17.6297 23.1784 16.5082V2.02842C23.1784 0.906975 22.2418 0 21.0892 0H4.08924C2.93658 0 2 0.906976 2 2.02842V16.5082C2 17.6297 2.93658 18.5367 4.08924 18.5367H9.24028V44.9496C9.24028 45.7591 9.57171 46.5351 10.1612 47.107C10.7506 47.6789 11.5497 48 12.3828 48H12.6942C13.5273 48 14.3264 47.6789 14.9158 47.107C15.5053 46.5351 15.8367 45.7591 15.8367 44.9496V18.5367ZM9.91793 18.5367H15.1591V44.9496C15.1591 45.5832 14.8997 46.191 14.4376 46.6394C13.9754 47.0879 13.3484 47.34 12.6942 47.34H12.3828C11.7287 47.34 11.1016 47.0879 10.6394 46.6394C10.1773 46.191 9.91793 45.5832 9.91793 44.9496V18.5367ZM17.1415 10.0163V3.56798H17.8192V10.0163H17.1415ZM32.0172 20.728C31.6207 20.728 31.2993 21.0411 31.2993 21.4272V25.4431C31.3109 25.8896 31.4856 26.318 31.7925 26.6516C32.0159 26.8945 32.2989 27.0757 32.6125 27.1801C32.7299 27.219 32.8516 27.2471 32.9761 27.2637L32.9882 27.2653L33.0002 27.2678C33.277 27.3247 33.5633 27.3233 33.8395 27.2637C34.1158 27.204 34.3756 27.0875 34.6013 26.9221C34.827 26.7567 35.0133 26.5463 35.1478 26.3051C35.2823 26.064 35.3617 25.7977 35.3809 25.5242L36.0578 25.5468L36.0611 25.5479V29.9979C36.0819 30.2662 36.1608 30.5273 36.2928 30.7642C36.4265 31.0043 36.6116 31.2141 36.8358 31.3793C37.004 31.5032 37.1911 31.5998 37.39 31.666C37.4553 31.6876 37.5219 31.7059 37.5895 31.7208C37.8642 31.7814 38.1491 31.7843 38.4251 31.7293L38.4391 31.7265L38.4533 31.7249C38.9168 31.6717 39.3446 31.4575 39.6576 31.1223C39.9707 30.787 40.1479 30.3534 40.1569 29.9016L40.1601 29.9017V21.4272C40.1601 21.0411 39.8387 20.728 39.4423 20.728H32.0172ZM30.6218 25.4536L30.6185 25.4537C30.6329 26.0591 30.8692 26.6395 31.2845 27.0909C31.5869 27.4196 31.9698 27.6643 32.3939 27.8048C32.5495 27.8566 32.7106 27.8943 32.8754 27.9171C33.2431 27.991 33.6229 27.9883 33.9895 27.9091C34.3602 27.8291 34.7089 27.6728 35.012 27.4506C35.1454 27.3529 35.2686 27.2434 35.3802 27.1238V30.0202L35.381 30.0317C35.4072 30.3981 35.5139 30.7548 35.6938 31.0778C35.8736 31.4008 36.1225 31.6826 36.4237 31.9045C36.6512 32.0722 36.9045 32.2026 37.1738 32.2915C37.262 32.3207 37.3519 32.3455 37.4432 32.3656C37.8071 32.4459 38.1843 32.4507 38.5501 32.3798C39.1701 32.3053 39.7423 32.0172 40.1623 31.5674C40.5855 31.1142 40.8256 30.5274 40.8377 29.9155L40.8378 23.0471L45.3224 23.1096V46.9232H23.1851V23.1143H30.6217V25.4471L30.6218 25.4536ZM30.6217 22.4543V21.4272C30.6217 20.6765 31.2465 20.068 32.0172 20.068H39.4423C40.213 20.068 40.8378 20.6765 40.8378 21.4272V22.3871L46 22.459V47.5832H22.5075V22.4543H30.6217Z" fill="#556575"/>
</svg>
