<svg width="48" height="48" viewBox="0 0 48 48" fill="none" xmlns="http://www.w3.org/2000/svg">
<g clip-path="url(#clip0_2454_4416)">
<path fill-rule="evenodd" clip-rule="evenodd" d="M0 0H48V48H0V0ZM0.516129 0.516129V47.4839H47.4839V0.516129H0.516129ZM18.1306 10.2342C20.2503 9.66623 22.4544 11.4147 23.1387 13.9685C23.823 16.5222 22.7884 19.1385 20.6687 19.7065C18.549 20.2745 16.3449 18.526 15.6606 15.9722C14.9763 13.4185 16.0109 10.8022 18.1306 10.2342ZM22.6402 14.1021C21.9965 11.6998 19.9992 10.2678 18.2642 10.7327C16.5292 11.1976 15.5154 13.4364 16.1591 15.8387C16.8028 18.2409 18.8001 19.6729 20.5351 19.208C22.2701 18.7431 23.2839 16.5044 22.6402 14.1021ZM29.9247 10.7327C28.1897 10.2678 26.1924 11.6998 25.5487 14.1021C24.905 16.5044 25.9188 18.7431 27.6538 19.208C29.3888 19.6729 31.3861 18.2409 32.0298 15.8387C32.6735 13.4364 31.6597 11.1976 29.9247 10.7327ZM25.0502 13.9685C25.7345 11.4147 27.9386 9.66623 30.0583 10.2342C32.178 10.8022 33.2126 13.4185 32.5283 15.9722C31.844 18.526 29.6399 20.2745 27.5202 19.7065C25.4005 19.1385 24.3659 16.5222 25.0502 13.9685ZM11.8614 18.0741C12.7973 18.4738 13.6741 19.2526 14.2833 20.3076C14.8924 21.3626 15.1284 22.5114 15.0066 23.5217C14.8849 24.5321 14.4011 25.4208 13.5565 25.9084C12.7119 26.3961 11.7004 26.3707 10.7645 25.9709C9.82863 25.5712 8.95175 24.7925 8.34263 23.7374C7.73351 22.6824 7.49753 21.5336 7.61925 20.5233C7.74099 19.5129 8.22477 18.6242 9.06941 18.1366C9.91404 17.6489 10.9255 17.6743 11.8614 18.0741ZM11.6587 18.5487C10.8352 18.1969 9.99987 18.1954 9.32747 18.5836C8.65507 18.9718 8.23879 19.6959 8.13168 20.585C8.02455 21.4742 8.23092 22.5117 8.78961 23.4794C9.3483 24.447 10.1436 25.1445 10.9672 25.4963C11.7907 25.8481 12.626 25.8497 13.2984 25.4615C13.9708 25.0732 14.3871 24.3491 14.4942 23.46C14.6013 22.5708 14.395 21.5333 13.8363 20.5657C13.2776 19.598 12.4823 18.9005 11.6587 18.5487ZM36.3447 18.5487C35.5211 18.9005 34.7258 19.598 34.1671 20.5657C33.6085 21.5333 33.4021 22.5708 33.5092 23.46C33.6163 24.3491 34.0326 25.0732 34.705 25.4615C35.3774 25.8497 36.2127 25.8481 37.0362 25.4963C37.8599 25.1445 38.6551 24.447 39.2138 23.4794C39.7725 22.5117 39.9789 21.4742 39.8718 20.585C39.7646 19.6959 39.3484 18.9718 38.676 18.5836C38.0036 18.1954 37.1683 18.1969 36.3447 18.5487ZM36.142 18.0741C37.0779 17.6743 38.0894 17.6489 38.934 18.1366C39.7787 18.6242 40.2624 19.5129 40.3842 20.5233C40.5059 21.5336 40.2699 22.6824 39.6608 23.7374C39.0517 24.7925 38.1748 25.5712 37.239 25.9709C36.3031 26.3707 35.2916 26.3961 34.4469 25.9084C33.6023 25.4208 33.1185 24.5321 32.9968 23.5217C32.8751 22.5114 33.111 21.3626 33.7202 20.3076C34.3293 19.2526 35.2062 18.4738 36.142 18.0741ZM18.5824 27.0968C18.5824 24.1037 21.0087 21.6774 24.0017 21.6774C26.9947 21.6774 29.4211 24.1037 29.4211 27.0968C29.4211 27.407 29.395 27.7113 29.3448 28.0075C31.7533 28.5589 33.5501 30.7145 33.5501 33.2903C33.5501 36.2833 31.1238 38.7097 28.1307 38.7097C26.4765 38.7097 24.9954 37.9683 24.0017 36.8005C23.008 37.9683 21.5269 38.7097 19.8727 38.7097C16.8797 38.7097 14.4533 36.2833 14.4533 33.2903C14.4533 30.7145 16.2501 28.5589 18.6586 28.0075C18.6085 27.7113 18.5824 27.407 18.5824 27.0968ZM24.0017 22.1935C21.2937 22.1935 19.0985 24.3888 19.0985 27.0968C19.0985 27.46 19.1379 27.8137 19.2127 28.154L19.2703 28.4163L19.0059 28.4634C16.7114 28.8725 14.9695 30.8783 14.9695 33.2903C14.9695 35.9983 17.1647 38.1935 19.8727 38.1935C21.4765 38.1935 22.9004 37.4238 23.7954 36.2326L24.0017 35.958L24.208 36.2326C25.103 37.4238 26.527 38.1935 28.1307 38.1935C30.8387 38.1935 33.034 35.9983 33.034 33.2903C33.034 30.8783 31.292 28.8725 28.9975 28.4634L28.7331 28.4163L28.7907 28.154C28.8655 27.8137 28.9049 27.46 28.9049 27.0968C28.9049 24.3888 26.7097 22.1935 24.0017 22.1935Z" fill="#556575"/>
</g>
<defs>
<clipPath id="clip0_2454_4416">
<rect width="48" height="48" fill="white"/>
</clipPath>
</defs>
</svg>
