<svg width="48" height="48" viewBox="0 0 48 48" fill="none" xmlns="http://www.w3.org/2000/svg">
<g clip-path="url(#clip0_2455_8066)">
<path fill-rule="evenodd" clip-rule="evenodd" d="M0 0H48V47.9985H38.7963V48H9.4675V47.9985H0V0ZM38.7963 47.3252V14.5793H9.4675V47.3252H0.673282V0.673282H47.3267V47.3252H38.7963ZM38.123 47.3252H24.3362V15.2526H38.123V47.3252ZM23.6629 15.2526H10.1408V47.3252H23.6629V15.2526ZM31.3321 8.50478L28.4678 6.00415L28.025 6.51134L31.3321 9.39855L34.6392 6.51134L34.1964 6.00415L31.3321 8.50478ZM17.1843 6.11464L20.4727 9.02445L20.0266 9.52867L17.1829 7.01241L14.3202 9.52937L13.8757 9.02374L17.1843 6.11464Z" fill="#556575"/>
</g>
<defs>
<clipPath id="clip0_2455_8066">
<rect width="48" height="48" fill="white"/>
</clipPath>
</defs>
</svg>
