<svg width="48" height="48" viewBox="0 0 48 48" fill="none" xmlns="http://www.w3.org/2000/svg">
<g clip-path="url(#clip0_2454_4416)">
<path fill-rule="evenodd" clip-rule="evenodd" d="M0.527475 24.2609L0.527473 48H0L4.24437e-06 0H0.527477L0.527475 23.7391H15.8242L15.8242 0H16.3517L16.3517 23.7391H31.6484L31.6484 0H32.1758L32.1758 23.7391H47.4725V0H48L48 48H47.4725V24.2609H32.1758L32.1758 48H31.6484L31.6484 24.2609H16.3517L16.3516 48H15.8242L15.8242 24.2609H0.527475ZM3.16484 2.08696C3.16484 1.36659 3.75523 0.782609 4.48352 0.782609H11.8681C12.5964 0.782609 13.1868 1.36659 13.1868 2.08696V20.8696C13.1868 21.5899 12.5964 22.1739 11.8681 22.1739H4.48352C3.75523 22.1739 3.16484 21.5899 3.16484 20.8696V2.08696ZM3.69231 7.30435V15.6522C3.69231 16.0844 4.04654 16.4348 4.48352 16.4348H11.8681C12.3051 16.4348 12.6593 16.0844 12.6593 15.6522V7.30435C12.6593 6.87212 12.3051 6.52174 11.8681 6.52174H4.48352C4.04654 6.52174 3.69231 6.87212 3.69231 7.30435ZM12.6593 6.26077C12.4389 6.09703 12.165 6 11.8681 6H4.48352C4.18665 6 3.9127 6.09703 3.69231 6.26077V2.08696C3.69231 1.65473 4.04654 1.30435 4.48352 1.30435H11.8681C12.3051 1.30435 12.6593 1.65473 12.6593 2.08696V6.26077ZM12.6593 16.6957C12.4389 16.8595 12.165 16.9565 11.8681 16.9565H4.48352C4.18665 16.9565 3.9127 16.8595 3.69231 16.6957V20.8696C3.69231 21.3018 4.04654 21.6522 4.48352 21.6522H11.8681C12.3051 21.6522 12.6593 21.3018 12.6593 20.8696V16.6957ZM18.989 2.08696C18.989 1.36659 19.5794 0.782609 20.3077 0.782609H27.6923C28.4206 0.782609 29.011 1.36659 29.011 2.08696V20.8696C29.011 21.5899 28.4206 22.1739 27.6923 22.1739H20.3077C19.5794 22.1739 18.989 21.5899 18.989 20.8696V2.08696ZM19.5165 7.30435V15.6522C19.5165 16.0844 19.8707 16.4348 20.3077 16.4348H27.6923C28.1293 16.4348 28.4835 16.0844 28.4835 15.6522V7.30435C28.4835 6.87212 28.1293 6.52174 27.6923 6.52174H20.3077C19.8707 6.52174 19.5165 6.87212 19.5165 7.30435ZM28.4835 6.26077C28.2631 6.09703 27.9892 6 27.6923 6H20.3077C20.0108 6 19.7369 6.09703 19.5165 6.26077V2.08696C19.5165 1.65473 19.8707 1.30435 20.3077 1.30435H27.6923C28.1293 1.30435 28.4835 1.65473 28.4835 2.08696V6.26077ZM28.4835 16.6957C28.2631 16.8595 27.9892 16.9565 27.6923 16.9565H20.3077C20.0108 16.9565 19.7369 16.8595 19.5165 16.6957V20.8696C19.5165 21.3018 19.8707 21.6522 20.3077 21.6522H27.6923C28.1293 21.6522 28.4835 21.3018 28.4835 20.8696V16.6957ZM36.9231 7.04348H41.1884C41.539 7.0559 41.8842 7.1294 42.2043 7.26001C42.5243 7.39064 42.8139 7.57638 43.0558 7.80799C43.2977 8.03966 43.4872 8.31287 43.6117 8.61269C43.7348 8.90884 43.7916 9.22428 43.7783 9.54103C43.7916 9.85777 43.7348 10.1732 43.6117 10.4694C43.4872 10.7692 43.2976 11.0424 43.0558 11.274C42.8139 11.5056 42.5244 11.6914 42.2043 11.822C41.8842 11.9527 41.539 12.0259 41.1884 12.0384L41.179 12.0387L37.4505 12.0385V15.6522H36.9231V7.04348ZM37.4505 11.5168H41.1741C41.4617 11.5061 41.7434 11.4457 42.0031 11.3397C42.2641 11.2332 42.4968 11.0831 42.6888 10.8992C42.8808 10.7153 43.0281 10.5016 43.1238 10.2711C43.2196 10.0406 43.2625 9.79682 43.2509 9.55324L43.2503 9.54103L43.2509 9.52881C43.2625 9.28523 43.2196 9.04144 43.1238 8.81099C43.0281 8.58039 42.8808 8.36664 42.6888 8.18282C42.4969 7.99895 42.2641 7.84885 42.0031 7.74231C41.7434 7.63633 41.4617 7.57593 41.1741 7.56522H37.4505V11.5168ZM3.16484 27.1304C3.16484 26.4101 3.75523 25.8261 4.48352 25.8261H11.8681C12.5964 25.8261 13.1868 26.4101 13.1868 27.1304V45.913C13.1868 46.6334 12.5964 47.2174 11.8681 47.2174H4.48352C3.75523 47.2174 3.16484 46.6334 3.16484 45.913V27.1304ZM3.69231 32.3478V40.6957C3.69231 41.1279 4.04654 41.4783 4.48352 41.4783H11.8681C12.3051 41.4783 12.6593 41.1279 12.6593 40.6957V32.3478C12.6593 31.9156 12.3051 31.5652 11.8681 31.5652H4.48352C4.04654 31.5652 3.69231 31.9156 3.69231 32.3478ZM12.6593 31.3043C12.4389 31.1405 12.165 31.0435 11.8681 31.0435H4.48352C4.18665 31.0435 3.9127 31.1405 3.69231 31.3043V27.1304C3.69231 26.6982 4.04654 26.3478 4.48352 26.3478H11.8681C12.3051 26.3478 12.6593 26.6982 12.6593 27.1304V31.3043ZM12.6593 41.7392C12.4389 41.903 12.165 42 11.8681 42H4.48352C4.18665 42 3.9127 41.903 3.69231 41.7392V45.913C3.69231 46.3453 4.04654 46.6957 4.48352 46.6957H11.8681C12.3051 46.6957 12.6593 46.3453 12.6593 45.913V41.7392ZM34.8132 27.1304C34.8132 26.4101 35.4036 25.8261 36.1319 25.8261H43.5165C44.2448 25.8261 44.8352 26.4101 44.8352 27.1304V45.913C44.8352 46.6334 44.2448 47.2174 43.5165 47.2174H36.1319C35.4036 47.2174 34.8132 46.6334 34.8132 45.913V27.1304ZM35.3407 32.3478V40.6957C35.3407 41.1279 35.6949 41.4783 36.1319 41.4783H43.5165C43.9535 41.4783 44.3077 41.1279 44.3077 40.6957V32.3478C44.3077 31.9156 43.9535 31.5652 43.5165 31.5652H36.1319C35.6949 31.5652 35.3407 31.9156 35.3407 32.3478ZM44.3077 31.3043C44.0873 31.1405 43.8133 31.0435 43.5165 31.0435H36.1319C35.835 31.0435 35.5611 31.1405 35.3407 31.3043V27.1304C35.3407 26.6982 35.6949 26.3478 36.1319 26.3478H43.5165C43.9535 26.3478 44.3077 26.6982 44.3077 27.1304V31.3043ZM44.3077 41.7392C44.0873 41.903 43.8133 42 43.5165 42H36.1319C35.835 42 35.5611 41.903 35.3407 41.7392V45.913C35.3407 46.3453 35.6949 46.6957 36.1319 46.6957H43.5165C43.9535 46.6957 44.3077 46.3453 44.3077 45.913V41.7392ZM21.0989 32.087H25.3642C25.7149 32.0994 26.06 32.1729 26.3801 32.3035C26.7002 32.4341 26.9897 32.6199 27.2316 32.8515C27.4735 33.0831 27.663 33.3563 27.7876 33.6562C27.9106 33.9523 27.9674 34.2678 27.9542 34.5845C27.9674 34.9012 27.9106 35.2167 27.7876 35.5128C27.663 35.8127 27.4735 36.0858 27.2316 36.3175C26.9898 36.5491 26.7002 36.7349 26.3801 36.8655C26.06 36.9961 25.7148 37.0694 25.3642 37.0818L25.3548 37.0822L21.6264 37.082V40.6957H21.0989V32.087ZM21.6264 36.5603H25.35C25.6375 36.5495 25.9192 36.4892 26.1789 36.3832C26.4399 36.2767 26.6727 36.1265 26.8647 35.9427C27.0566 35.7588 27.2039 35.5451 27.2997 35.3145C27.3954 35.0841 27.4383 34.8403 27.4267 34.5967L27.4262 34.5845L27.4267 34.5723C27.4383 34.3287 27.3954 34.0849 27.2997 33.8545C27.2039 33.6239 27.0566 33.4101 26.8647 33.2263C26.6727 33.0424 26.44 32.8923 26.1789 32.7858C25.9192 32.6798 25.6375 32.6194 25.35 32.6087H21.6264V36.5603Z" fill="#556575"/>
</g>
<defs>
<clipPath id="clip0_2454_4416">
<rect width="48" height="48" fill="white"/>
</clipPath>
</defs>
</svg>
