<svg width="48" height="48" viewBox="0 0 48 48" fill="none" xmlns="http://www.w3.org/2000/svg">
<g clip-path="url(#clip0_2455_8066)">
<path fill-rule="evenodd" clip-rule="evenodd" d="M0 48V0H0.719555V24.4694H15.7793V0H16.4989V24.4694H31.434V0H32.1536V24.4694H47.2804V0H48V48H47.2804V25.1522H32.1536V48H31.434V25.1522H16.4989V48H15.7793V25.1522H0.719555V48H0ZM7.04307 2.80552C5.3566 2.80552 3.99813 4.08357 3.99813 5.65006V18.8598C3.99813 20.4263 5.3566 21.7044 7.04307 21.7044H9.72516C11.4116 21.7044 12.7701 20.4263 12.7701 18.8598V5.65006C12.7701 4.08357 11.4116 2.80552 9.72516 2.80552H7.04307ZM3.27857 5.65006C3.27857 3.69742 4.96878 2.12266 7.04307 2.12266H9.72516C11.7995 2.12266 13.4897 3.69742 13.4897 5.65006V18.8598C13.4897 20.8125 11.7995 22.3872 9.72516 22.3872H7.04307C4.96878 22.3872 3.27857 20.8125 3.27857 18.8598V5.65006ZM23.1478 2.80552C21.5146 2.80552 20.1993 4.04321 20.1993 5.55989V18.95C20.1993 20.4667 21.5146 21.7044 23.1478 21.7044H25.4926C27.1259 21.7044 28.4412 20.4667 28.4412 18.95V5.55989C28.4412 4.04321 27.1259 2.80552 25.4926 2.80552H23.1478ZM19.4797 5.55989C19.4797 3.65705 21.1268 2.12266 23.1478 2.12266H25.4926C27.5137 2.12266 29.1608 3.65705 29.1608 5.55989V18.95C29.1608 20.8529 27.5137 22.3872 25.4926 22.3872H23.1478C21.1268 22.3872 19.4797 20.8529 19.4797 18.95V5.55989ZM7.20402 7.07438C6.99538 7.07438 6.79627 7.15197 6.65029 7.28857C6.57464 7.35936 6.51645 7.44296 6.47796 7.53367H10.323C10.3216 7.53039 10.3201 7.52712 10.3187 7.52385C10.2799 7.43608 10.2229 7.35611 10.1507 7.28857C10.0785 7.22098 9.9924 7.16711 9.89731 7.13025C9.80225 7.09341 9.70015 7.07438 9.59695 7.07438H7.20402ZM6.14508 6.80233C6.42679 6.53873 6.80783 6.39152 7.20402 6.39152H9.59695C9.79323 6.39152 9.98776 6.42769 10.1694 6.49809C10.351 6.56847 10.5164 6.67176 10.6559 6.80233C10.7955 6.93296 10.9063 7.08825 10.9821 7.25939C11.0579 7.43054 11.097 7.61422 11.097 7.79993V8.21653H5.70395V7.79993C5.70395 7.42484 5.86322 7.06609 6.14508 6.80233ZM23.2292 7.07438C23.0291 7.07438 22.8382 7.1488 22.6982 7.27977C22.6205 7.35253 22.5619 7.43941 22.5253 7.53367H26.0852C26.0486 7.43941 25.99 7.35253 25.9123 7.27977C25.7723 7.1488 25.5814 7.07438 25.3813 7.07438H23.2292ZM22.193 6.79353C22.4687 6.53556 22.8415 6.39152 23.2292 6.39152H25.3813C25.769 6.39152 26.1418 6.53556 26.4175 6.79353C26.6933 7.05165 26.8492 7.40278 26.8492 7.76989V8.21653H21.7613V7.76989C21.7613 7.40278 21.9172 7.05165 22.193 6.79353ZM37.4351 9.38207H41.0212C41.3251 9.39348 41.6238 9.46118 41.9002 9.5808C42.1766 9.70043 42.4254 9.87 42.6322 10.0801C42.8391 10.2902 42.9999 10.5367 43.1052 10.8056C43.2088 11.0699 43.2566 11.3507 43.246 11.6321C43.2566 11.9136 43.2088 12.1943 43.1052 12.4586C42.9999 12.7275 42.8391 12.974 42.6322 13.1841C42.4254 13.3941 42.1766 13.5638 41.9002 13.6834C41.6238 13.8031 41.3251 13.8704 41.0212 13.8818L41.0069 13.8824L38.1547 13.8821V16.8469H37.4351V9.38207ZM38.1547 13.1992H40.9995C41.208 13.1906 41.4125 13.144 41.6016 13.0621C41.7928 12.9794 41.9642 12.8623 42.1065 12.7179C42.2487 12.5734 42.3588 12.4044 42.4308 12.2207C42.5027 12.037 42.5352 11.8419 42.5265 11.6466L42.5258 11.6321L42.5265 11.6176C42.5352 11.4223 42.5027 11.2272 42.4308 11.0435C42.3588 10.8597 42.2487 10.6907 42.1065 10.5463C41.9643 10.4019 41.7928 10.2848 41.6016 10.2021C41.4125 10.1202 41.2079 10.0736 40.9995 10.0649H38.1547V13.1992ZM5.66068 16.1889H11.0538V16.6055C11.0538 16.9806 10.8945 17.3394 10.6126 17.6031C10.3309 17.8667 9.94988 18.0139 9.55369 18.0139H7.16076C6.96448 18.0139 6.76995 17.9778 6.58833 17.9074C6.40673 17.837 6.24135 17.7337 6.10182 17.6031C5.96222 17.4725 5.85137 17.3172 5.77561 17.1461C5.69985 16.9749 5.66068 16.7912 5.66068 16.6055V16.1889ZM6.43475 16.8718C6.43614 16.8751 6.43756 16.8783 6.43901 16.8816C6.47786 16.9694 6.53486 17.0494 6.60703 17.1169C6.67926 17.1845 6.76531 17.2384 6.8604 17.2752C6.95546 17.3121 7.05756 17.3311 7.16076 17.3311H9.55369C9.76233 17.3311 9.96144 17.2535 10.1074 17.1169C10.1831 17.0461 10.2413 16.9625 10.2798 16.8718H6.43475ZM21.7835 16.1889H26.8714V16.6356C26.8714 17.0027 26.7156 17.3538 26.4397 17.6119C26.164 17.8699 25.7912 18.0139 25.4035 18.0139H23.2514C22.8637 18.0139 22.4909 17.8699 22.2152 17.6119C21.9394 17.3538 21.7835 17.0027 21.7835 16.6356V16.1889ZM22.5475 16.8718C22.5842 16.966 22.6427 17.0529 22.7204 17.1257C22.8604 17.2567 23.0513 17.3311 23.2514 17.3311H25.4035C25.6036 17.3311 25.7945 17.2567 25.9345 17.1257C26.0123 17.0529 26.0708 16.966 26.1074 16.8718H22.5475ZM7.04307 27.1353C5.3566 27.1353 3.99813 28.4133 3.99813 29.9798V43.1896C3.99813 44.7561 5.3566 46.0341 7.04307 46.0341H9.72516C11.4116 46.0341 12.7701 44.7561 12.7701 43.1896V29.9798C12.7701 28.4133 11.4116 27.1353 9.72516 27.1353H7.04307ZM3.27857 29.9798C3.27857 28.0272 4.96878 26.4524 7.04307 26.4524H9.72516C11.7995 26.4524 13.4897 28.0272 13.4897 29.9798V43.1896C13.4897 45.1423 11.7995 46.717 9.72516 46.717H7.04307C4.96878 46.717 3.27857 45.1423 3.27857 43.1896V29.9798ZM38.5219 27.1353C36.8266 27.1353 35.4609 28.4201 35.4609 29.9949V43.1746C35.4609 44.7494 36.8266 46.0341 38.5219 46.0341H41.2361C42.9314 46.0341 44.2971 44.7494 44.2971 43.1746V29.9949C44.2971 28.4201 42.9314 27.1353 41.2361 27.1353H38.5219ZM34.7413 29.9949C34.7413 28.0339 36.4388 26.4524 38.5219 26.4524H41.2361C43.3192 26.4524 45.0166 28.0339 45.0166 29.9949V43.1746C45.0166 45.1355 43.3192 46.717 41.2361 46.717H38.5219C36.4388 46.717 34.7413 45.1355 34.7413 43.1746V29.9949ZM7.20402 31.4025C6.99538 31.4025 6.79627 31.4801 6.65029 31.6167C6.57465 31.6874 6.51645 31.771 6.47796 31.8618H10.323C10.3216 31.8585 10.3201 31.8552 10.3187 31.8519C10.2799 31.7642 10.2229 31.6842 10.1507 31.6167C10.0785 31.5491 9.9924 31.4952 9.89731 31.4583C9.80225 31.4215 9.70015 31.4025 9.59695 31.4025H7.20402ZM6.14508 31.1304C6.42679 30.8668 6.80783 30.7196 7.20402 30.7196H9.59695C9.79324 30.7196 9.98776 30.7558 10.1694 30.8262C10.351 30.8966 10.5164 30.9998 10.6559 31.1304C10.7955 31.261 10.9063 31.4163 10.9821 31.5875C11.0579 31.7586 11.097 31.9423 11.097 32.128V32.5446H5.70395V32.128C5.70395 31.7529 5.86322 31.3942 6.14508 31.1304ZM38.6956 31.4025C38.4869 31.4025 38.2879 31.48 38.1419 31.6167C38.0663 31.6875 38.008 31.7711 37.9695 31.8618H41.7985C41.76 31.771 41.7018 31.6874 41.6261 31.6167C41.4802 31.4801 41.2811 31.4025 41.0724 31.4025H38.6956ZM37.6367 31.1304C37.9184 30.8668 38.2993 30.7196 38.6956 30.7196H41.0724C41.4686 30.7196 41.8496 30.8668 42.1314 31.1304C42.4132 31.3942 42.5725 31.7529 42.5725 32.128V32.5446H37.1955V32.128C37.1955 31.7529 37.3549 31.3941 37.6367 31.1304ZM21.2628 33.8313H24.8488C25.1527 33.8427 25.4514 33.9103 25.7279 34.0299C26.0043 34.1496 26.253 34.3192 26.4599 34.5293C26.6667 34.7394 26.8276 34.9858 26.9329 35.2547C27.0364 35.5191 27.0842 35.7998 27.0736 36.0812C27.0842 36.3627 27.0364 36.6434 26.9329 36.9078C26.8276 37.1767 26.6667 37.4231 26.4599 37.6332C26.253 37.8433 26.0043 38.0129 25.7279 38.1325C25.4514 38.2522 25.1527 38.3196 24.8488 38.331L24.8346 38.3315L21.9823 38.3312V41.281H21.2628V33.8313ZM21.9823 37.6484H24.8271C25.0356 37.6397 25.2401 37.5931 25.4293 37.5113C25.6204 37.4285 25.7919 37.3115 25.9341 37.167C26.0763 37.0226 26.1864 36.8536 26.2584 36.6699C26.3304 36.4861 26.3628 36.2911 26.3541 36.0957L26.3535 36.0812L26.3541 36.0668C26.3628 35.8714 26.3304 35.6764 26.2584 35.4926C26.1864 35.3089 26.0763 35.1399 25.9341 34.9955C25.7919 34.851 25.6204 34.734 25.4293 34.6512C25.2401 34.5694 25.0356 34.5228 24.8271 34.5141H21.9823V37.6484ZM5.66068 40.517H11.0538V40.9336C11.0538 41.3086 10.8945 41.6674 10.6126 41.9312C10.3309 42.1948 9.94988 42.342 9.55369 42.342H7.16076C6.96448 42.342 6.76996 42.3059 6.58833 42.2355C6.40672 42.1651 6.24135 42.0618 6.10182 41.9312C5.96222 41.8006 5.85136 41.6453 5.77561 41.4742C5.69984 41.303 5.66068 41.1193 5.66068 40.9336V40.517ZM6.43475 41.1999C6.43615 41.2031 6.43756 41.2064 6.43901 41.2097C6.47786 41.2975 6.53486 41.3774 6.60703 41.445C6.67926 41.5126 6.76531 41.5664 6.8604 41.6033C6.95545 41.6401 7.05756 41.6592 7.16076 41.6592H9.55369C9.76233 41.6592 9.96144 41.5816 10.1074 41.445C10.1831 41.3742 10.2413 41.2906 10.2797 41.1999H6.43475ZM37.1971 40.517H42.5741V40.9336C42.5741 41.3087 42.4146 41.6675 42.1328 41.9312C41.8511 42.1948 41.4702 42.342 41.074 42.342H38.6971C38.3009 42.342 37.9199 42.1948 37.6382 41.9312C37.3563 41.6674 37.1971 41.3086 37.1971 40.9336V40.517ZM37.9711 41.1999C38.0096 41.2906 38.0678 41.3742 38.1434 41.445C38.2894 41.5816 38.4885 41.6592 38.6971 41.6592H41.074C41.2826 41.6592 41.4816 41.5816 41.6276 41.445C41.7033 41.3742 41.7615 41.2906 41.8 41.1999H37.9711Z" fill="#556575"/>
</g>
<defs>
<clipPath id="clip0_2455_8066">
<rect width="48" height="48" fill="white"/>
</clipPath>
</defs>
</svg>
