<svg width="48" height="48" viewBox="0 0 48 48" fill="none" xmlns="http://www.w3.org/2000/svg">
<g clip-path="url(#clip0_2454_4416)">
<path fill-rule="evenodd" clip-rule="evenodd" d="M0 0H48V48H0V0ZM0.516129 0.516129V8.25806H47.4839V0.516129H0.516129ZM47.4839 8.77419H0.516129V47.4839H15.4839V16.5161H32.5161V47.4839H47.4839V8.77419ZM32 47.4839V17.0323H16V47.4839H32ZM3.09677 16.5161H11.871V37.6774H3.09677V16.5161ZM3.6129 17.0323V37.1613H11.3548V17.0323H3.6129ZM36.129 16.5161H44.9032V37.6774H36.129V16.5161ZM36.6452 17.0323V37.1613H44.3871V17.0323H36.6452ZM18.5806 35.3548V29.1613H19.0968V35.3548H18.5806Z" fill="#556575"/>
</g>
<defs>
<clipPath id="clip0_2454_4416">
<rect width="48" height="48" fill="white"/>
</clipPath>
</defs>
</svg>
