<svg width="48" height="48" viewBox="0 0 48 48" fill="none" xmlns="http://www.w3.org/2000/svg">
<g clip-path="url(#clip0_2455_8066)">
<path fill-rule="evenodd" clip-rule="evenodd" d="M31.1197 0L41.0543 14.8274L27.2028 24.6997L29.1413 36.913H41.0006V22.5422H48V48H41.0006V37.5991H28.5722L26.5937 25.1338L16.8038 32.1113L14.3369 30.6528L6.76539 36.0241L0.315778 26.3899L3.41584 24.1757L0 22.1658L31.1197 0ZM4.05704 24.5539L13.6961 30.273L6.93701 35.068L1.24358 26.5634L4.05704 24.5539ZM14.4882 29.9503L16.7704 31.2995L40.1259 14.6535L30.949 0.956988L1.25048 22.1105L4.20802 23.8507L14.4882 29.9503ZM41.6698 23.2283V47.3139H47.3308V23.2283H41.6698Z" fill="#556575"/>
</g>
<defs>
<clipPath id="clip0_2455_8066">
<rect width="48" height="48" fill="white"/>
</clipPath>
</defs>
</svg>
