<svg width="48" height="48" viewBox="0 0 48 48" fill="none" xmlns="http://www.w3.org/2000/svg">
<g clip-path="url(#clip0_2455_8066)">
<path fill-rule="evenodd" clip-rule="evenodd" d="M24.0239 0.00313107C26.3215 -0.0586381 28.5514 0.79559 30.2319 2.38214L30.2358 2.38579L45.2952 17.0529L44.8267 17.5525L29.7711 2.88902C29.7705 2.88843 29.7699 2.88784 29.7693 2.88724C28.2193 1.42497 26.1622 0.636849 24.0417 0.693857C21.9219 0.750847 19.9098 1.64785 18.4392 3.19038L17.0221 4.76022L24.892 12.1373L24.8751 12.156L35.2723 23.303C35.997 24.083 36.553 24.9433 36.9622 25.8596C37.5452 27.1152 37.8622 28.4924 37.878 29.9023C37.8853 30.0542 37.89 30.2066 37.8922 30.3595C39.0633 30.937 40.389 31.1202 41.6737 30.8787C43.0247 30.6247 44.2503 29.9161 45.1515 28.8689L45.1603 28.8587C46.5996 27.3134 47.3755 25.2561 47.3191 23.1357C47.2627 21.0152 46.3788 19.0028 44.8594 17.5378L45.3254 17.0359C46.9749 18.6263 47.9356 20.8123 47.9969 23.117C48.0581 25.4194 47.2166 27.6524 45.6569 29.3296C44.6551 30.4914 43.2948 31.2765 41.7968 31.5582C40.4722 31.8072 39.1083 31.6498 37.8787 31.1125V34.1285C37.9238 37.5878 36.6738 40.9361 34.38 43.5024C32.1977 45.9439 29.2241 47.5059 26.0062 47.9138C25.8359 47.9356 25.6649 47.9542 25.4933 47.9694L25.4863 47.9701C23.6725 48.0927 21.8531 47.8375 20.1408 47.2202C18.4285 46.603 16.8596 45.6368 15.5315 44.3813C14.2034 43.1259 13.1444 41.6079 12.4201 39.9215C11.6959 38.235 11.3219 36.416 11.3216 34.5773V31.9802C11.074 32.1107 10.789 32.1847 10.5069 32.2257C9.67211 32.3469 8.66196 32.2049 8.03968 32.0616C6.73662 31.7615 5.56055 31.0526 4.67968 30.0357C3.86494 29.254 3.20969 28.3181 2.75129 27.2809C2.29065 26.2387 2.03785 25.1147 2.00746 23.9734C1.97707 22.8321 2.16966 21.6959 2.57418 20.6301C2.97828 19.5653 3.58591 18.5917 4.36218 17.7648L17.9494 2.71235C19.5442 1.03766 21.7262 0.0649005 24.0239 0.00313107ZM37.2007 34.1372L37.1849 34.1374C37.2283 37.4216 36.042 40.6013 33.863 43.0391C31.7938 45.3541 28.9746 46.8374 25.9221 47.2282C25.7666 47.2479 25.6104 47.2648 25.4537 47.2788C23.7329 47.3946 22.007 47.1523 20.3827 46.5668C18.7573 45.9809 17.2685 45.0639 16.0084 43.8727C14.7484 42.6816 13.7439 41.2417 13.0571 39.6424C12.3703 38.0431 12.0157 36.3184 12.0154 34.5752L12.0019 31.1393C12.0438 30.9592 12.0491 30.7599 12.0149 30.5436C12.0139 28.3952 12.7704 26.3195 14.1441 24.6868C14.2045 24.6154 14.266 24.5449 14.3288 24.4752C14.334 24.4694 14.3387 24.463 14.344 24.4572L24.6675 12.9363L34.7804 23.7785C34.7809 23.7791 34.7815 23.7797 34.782 23.7803L34.7652 23.7966C35.4156 24.4967 35.9461 25.2899 36.344 26.1438C36.8661 27.3118 37.1354 28.5872 37.2002 29.922C37.2005 29.9544 37.2007 29.9869 37.2006 30.0193V34.1308L37.2007 34.1354C37.2007 34.136 37.2007 34.1366 37.2007 34.1372ZM13.6299 24.2364C13.6999 24.1532 13.7714 24.0711 13.8443 23.9901C13.8444 23.9901 13.8443 23.9902 13.8443 23.9901L24.2029 12.4301L16.5631 5.26876L4.85438 18.2401C4.13866 19.0019 3.57871 19.8988 3.20656 20.8793C2.83442 21.8599 2.6573 22.9049 2.68525 23.9546C2.7132 25.0043 2.9457 26.0382 3.36951 26.9972C3.79333 27.9561 4.40018 28.8213 5.15545 29.5431L5.16743 29.5546L5.17827 29.5672C5.96547 30.4807 7.01964 31.1183 8.18911 31.3876C8.77722 31.523 9.69461 31.6457 10.4113 31.5416C10.7727 31.4892 11.0339 31.3857 11.1857 31.2454C11.2424 31.1929 11.2905 31.1295 11.3216 31.0475V30.593C11.3133 28.2597 12.1349 26.0042 13.6299 24.2364ZM44.8318 2.57783V0.430759H45.5098V2.57783H47.5953V3.26879H45.5098V5.41504H44.8318V3.26879H42.7431V2.57783H44.8318ZM19.2118 27.0537C18.4492 27.0537 17.7183 27.36 17.1798 27.9043C16.6415 28.4485 16.3395 29.186 16.3395 29.9544H15.6615C15.6615 29.0009 16.0362 28.0871 16.7023 27.4137C17.3683 26.7405 18.2711 26.3628 19.2118 26.3628C20.1525 26.3628 21.0553 26.7405 21.7213 27.4137C22.3874 28.0871 22.7622 29.0009 22.7622 29.9544H22.0842C22.0842 29.186 21.7822 28.4485 21.2438 27.9043C20.7054 27.36 19.9745 27.0537 19.2118 27.0537ZM30.2084 27.0626C29.4478 27.0626 28.7189 27.368 28.182 27.9108C27.6451 28.4535 27.344 29.189 27.344 29.9553H26.666C26.666 29.004 27.0398 28.0921 27.7045 27.4203C28.369 26.7485 29.2698 26.3716 30.2084 26.3716C31.1471 26.3716 32.0478 26.7485 32.7124 27.4203C33.377 28.0921 33.751 29.0039 33.751 29.9553H33.0729C33.0729 29.189 32.7718 28.4536 32.2349 27.9108C31.6979 27.368 30.969 27.0626 30.2084 27.0626ZM2.08871 35.2599V33.1146H2.76675V35.2599H4.85234V35.9509H2.76675V38.1148H2.08871V35.9509H0V35.2599H2.08871ZM21.6731 37.7017C21.6731 38.4701 21.975 39.2076 22.5133 39.7518C23.0518 40.2961 23.7827 40.6024 24.5453 40.6024C25.308 40.6024 26.0389 40.2961 26.5773 39.7518C27.1157 39.2076 27.4176 38.4701 27.4176 37.7017H28.0956C28.0956 38.6552 27.721 39.569 27.0548 40.2424C26.3888 40.9156 25.486 41.2934 24.5453 41.2934C23.6046 41.2934 22.7018 40.9156 22.0358 40.2424C21.3697 39.569 20.995 38.6552 20.995 37.7017H21.6731ZM40.7918 45.024V42.8752H41.4698V45.024H43.5647V45.715H41.4698V47.8594H40.7918V45.715H38.7125V45.024H40.7918Z" fill="#556575"/>
</g>
<defs>
<clipPath id="clip0_2455_8066">
<rect width="48" height="48" fill="white"/>
</clipPath>
</defs>
</svg>
