<svg width="48" height="48" viewBox="0 0 48 48" fill="none" xmlns="http://www.w3.org/2000/svg">
<g clip-path="url(#clip0_2455_8066)">
<path fill-rule="evenodd" clip-rule="evenodd" d="M19.5595 2.02321C18.4597 1.17613 17.1253 0.718998 15.7546 0.719551C14.0618 0.719551 12.4379 1.41539 11.2405 2.65442C10.0431 3.89349 9.37019 5.57434 9.37019 7.32725V42.5642H11.6392C12.2837 42.5642 12.9218 42.6955 13.5172 42.9507C14.1126 43.2059 14.6535 43.5799 15.1091 44.0513C15.5646 44.5227 15.9259 45.0822 16.1724 45.6979C16.3744 46.2027 16.496 46.7371 16.5333 47.2805H48V48H0V47.2805H1.629C1.66628 46.7371 1.78792 46.2027 1.98997 45.6979C2.23643 45.0822 2.59772 44.5227 3.05326 44.0513C3.50881 43.5799 4.04973 43.2059 4.6451 42.9507C5.24047 42.6955 5.87858 42.5642 6.52309 42.5642H8.67215V7.32725C8.67215 5.3844 9.41796 3.52083 10.746 2.1466C12.074 0.772358 13.8756 3.78589e-05 15.7543 5.02246e-07M15.8332 47.2801C15.7973 46.8311 15.6942 46.3899 15.5271 45.9724C15.3155 45.4438 15.0054 44.9635 14.6145 44.5591C14.2237 44.1547 13.7597 43.8339 13.2492 43.6151C12.7387 43.3963 12.1917 43.2837 11.6392 43.2837H6.52309C5.97062 43.2837 5.42359 43.3963 4.9131 43.6151C4.4026 43.8339 3.93863 44.1547 3.54779 44.5591C3.15694 44.9635 2.84683 45.4438 2.63523 45.9724C2.4681 46.3899 2.36504 46.8311 2.32909 47.2801H15.8332ZM15.7543 5.02246e-07C17.2759 -0.000582786 18.757 0.506904 19.9773 1.44678C20.615 1.93796 21.2515 2.82847 21.7722 3.74558C22.229 4.55032 22.6173 5.41241 22.8535 6.11738C23.4321 6.05142 24.0191 6.18593 24.5198 6.50507C25.1132 6.88329 25.5369 7.48967 25.6979 8.19061L26.0091 9.54533L30.2454 12.5847C30.743 12.942 30.8706 13.5064 30.6892 14.0079C30.5148 14.4899 30.0718 14.885 29.4853 15.039L29.4798 15.0405L20.0312 17.3516C20.0304 17.3518 20.0296 17.352 20.0288 17.3522C19.4304 17.5063 18.8524 17.3559 18.4924 16.9912C18.3111 16.8075 18.186 16.5683 18.1563 16.2962C18.1268 16.0252 18.1948 15.7477 18.3552 15.4905L20.9419 10.9361L20.599 9.44341C20.4387 8.74548 20.5516 8.01019 20.9134 7.39794C21.2096 6.89673 21.6529 6.51119 22.174 6.29419C21.9543 5.65407 21.5963 4.86033 21.1697 4.10901C20.6611 3.21305 20.0819 2.42553 19.5595 2.02321M22.6964 6.87441C22.2022 6.99979 21.7754 7.32232 21.5096 7.77226C21.2435 8.2226 21.1602 8.7638 21.2783 9.27761L21.5245 10.3497L25.2666 9.43611L25.0186 8.3564C24.9001 7.84048 24.5885 7.39481 24.1527 7.11709C23.7174 6.83962 23.1936 6.75243 22.6964 6.87441ZM21.6463 11.12L18.9495 15.8683L18.9449 15.8755C18.8589 16.0118 18.8403 16.127 18.85 16.2159C18.8599 16.3065 18.902 16.3973 18.9816 16.4779C19.143 16.6414 19.4609 16.7573 19.8613 16.6537L19.8656 16.6526L29.3157 14.341C29.7126 14.236 29.9524 13.9852 30.0351 13.7565C30.111 13.5468 30.0694 13.3353 29.8467 13.1753C29.8466 13.1753 29.8467 13.1754 29.8467 13.1753L25.6198 10.1427L21.6463 11.12ZM25.6347 23.0422C27.6354 21.8127 29.9195 21.1637 32.2467 21.1637C34.5738 21.1637 36.8579 21.8127 38.8587 23.0422C40.8562 24.2698 42.4976 26.0307 43.6109 28.1402C43.9321 28.0129 44.2758 27.9458 44.6258 27.9453L44.6341 27.9453C45.417 27.9634 46.1676 28.2699 46.7514 28.8091C47.0777 29.0912 47.3434 29.4406 47.5316 29.835C47.7207 30.2313 47.8273 30.6643 47.8445 31.1059C47.8617 31.5474 47.7892 31.9878 47.6315 32.3987C47.4761 32.8035 47.2414 33.1707 46.9422 33.4773C46.0676 34.5685 45.3048 35.7506 44.6661 37.0047V41.1764L44.6661 41.1792C44.6638 41.4775 44.6044 41.7725 44.4915 42.047C44.3785 42.3216 44.214 42.5703 44.0075 42.7789C43.8011 42.9876 43.5566 43.1519 43.2883 43.2624C43.0209 43.3725 42.7351 43.4269 42.4472 43.4225H42.2299L41.9135 47.2272H39.8026L39.4862 43.4225H24.7291L24.4126 47.2272H22.2269L21.9251 43.4174C21.3989 43.3803 20.9018 43.1475 20.5271 42.7598C20.1215 42.34 19.8918 41.7723 19.8872 41.1793L19.8872 41.1764V37.0033C19.2509 35.7367 18.4834 34.5454 17.5982 33.4506C17.2988 33.1439 17.0639 32.7765 16.9084 32.3714C16.7507 31.9606 16.6782 31.5202 16.6954 31.0787C16.7126 30.6371 16.8192 30.2041 17.0083 29.8077C17.1965 29.4134 17.4622 29.0639 17.7885 28.7818C18.3723 28.2427 19.1229 27.9363 19.9058 27.9182L19.9141 27.918C20.2545 27.9184 20.5889 27.982 20.9025 28.1026C22.0154 26.0098 23.649 24.2625 25.6347 23.0422ZM21.5218 28.4349C21.6331 28.5138 21.7394 28.6013 21.8397 28.6969C23.6707 30.4022 25.2071 32.4174 26.3835 34.6554H38.1707C39.3453 32.4282 40.8767 30.4225 42.7002 28.724C42.7936 28.6351 42.8921 28.5533 42.9949 28.4787C41.9414 26.4848 40.3893 24.8206 38.5012 23.6603C36.6085 22.4971 34.4479 21.8833 32.2467 21.8833C30.0455 21.8833 27.8849 22.4971 25.9921 23.6603C24.1179 24.812 22.5748 26.4603 21.5218 28.4349ZM38.9691 34.6554H42.4969C43.0742 34.6602 43.6261 34.9009 44.0323 35.3246C44.2026 35.5022 44.3415 35.706 44.4454 35.9267C45.0215 34.8977 45.6804 33.9202 46.4155 33.0047L46.427 32.9904L46.4399 32.9774C46.6757 32.7387 46.8606 32.4513 46.9824 32.1339C47.1042 31.8165 47.1603 31.4761 47.147 31.1348C47.1337 30.7934 47.0513 30.4588 46.9052 30.1525C46.7591 29.8463 46.5526 29.5754 46.299 29.3571L46.2891 29.3486C45.8296 28.9226 45.2388 28.6802 44.6226 28.6649C44.0854 28.6667 43.568 28.8766 43.1726 29.2538L43.1695 29.2567C41.4983 30.813 40.0804 32.6361 38.9691 34.6554ZM25.5857 34.6554C24.4722 32.6252 23.0491 30.7928 21.3703 29.2294L21.3673 29.2265C20.9718 28.8494 20.4545 28.6394 19.9173 28.6377C19.3011 28.6529 18.7101 28.8952 18.2506 29.3212L18.241 29.3301C17.9875 29.5483 17.7808 29.8191 17.6347 30.1253C17.4886 30.4315 17.4062 30.7662 17.3929 31.1075C17.3796 31.4489 17.4356 31.7893 17.5575 32.1067C17.6793 32.4241 17.8642 32.7114 18.1 32.9501L18.1123 32.9626L18.1234 32.9762C18.8684 33.8961 19.5332 34.8818 20.1103 35.9215C20.2139 35.7028 20.352 35.5009 20.5209 35.3246C20.9271 34.9009 21.479 34.6602 22.0564 34.6554L22.0592 34.6554L25.5857 34.6554ZM22.6259 43.4225L22.8703 46.5076H23.7719L24.0285 43.4225H22.6259ZM40.1868 43.4225L40.4434 46.5076H41.2728L41.5293 43.4225H40.1868ZM22.0605 35.375C21.6687 35.3786 21.2938 35.5421 21.0174 35.8304C20.7407 36.1191 20.5852 36.5095 20.5852 36.9168V41.1748C20.5887 41.5794 20.7455 41.9662 21.0217 42.2519C21.2978 42.5377 21.6711 42.6995 22.061 42.703H42.4556C42.6519 42.7062 42.8469 42.6693 43.0293 42.5942C43.2118 42.519 43.3783 42.4072 43.5189 42.2651C43.6596 42.1229 43.7718 41.9533 43.8489 41.766C43.9258 41.5789 43.9664 41.378 43.968 41.1746V36.9168C43.968 36.5095 43.8125 36.1191 43.5358 35.8304C43.2594 35.5421 42.8845 35.3786 42.4927 35.375H22.0605Z" fill="#556575"/>
</g>
<defs>
<clipPath id="clip0_2455_8066">
<rect width="48" height="48" fill="white"/>
</clipPath>
</defs>
</svg>
