<svg width="48" height="48" viewBox="0 0 48 48" fill="none" xmlns="http://www.w3.org/2000/svg">
<g clip-path="url(#clip0_2455_8066)">
<path fill-rule="evenodd" clip-rule="evenodd" d="M0 0H48V48H0V0ZM0.703437 0.703437V10.0476H47.2966V0.703437H0.703437ZM47.2966 10.751H0.703437V47.2966H15.8499V17.686H31.6645V47.2966H47.2966V10.751ZM30.961 47.2934V18.3894H16.5533V47.2934H30.961ZM4.77418 17.686H12.4297V39.8819H4.77418V17.686ZM5.47762 18.3894V39.1785H11.7263V18.3894H5.47762ZM35.3501 17.686H43.0056V39.8819H35.3501V17.686ZM36.0535 18.3894V39.1785H42.3022V18.3894H36.0535ZM20.1534 35.9424V29.4504H20.8568V35.9424H20.1534Z" fill="#556575"/>
</g>
<defs>
<clipPath id="clip0_2455_8066">
<rect width="48" height="48" fill="white"/>
</clipPath>
</defs>
</svg>
