<svg width="34" height="34" viewBox="0 0 34 34" fill="none" xmlns="http://www.w3.org/2000/svg">
<path d="M1 27.9999H33M5.48078 10.8271V28M17.0016 10.8271V28M13.9959 13.6616L16.9908 16.2621M20.009 13.613L17.0016 16.2625M28.4587 10.8271V28M5.48621 5H5.49864C7.97631 5 9.98485 6.98258 9.98485 9.42818V17.757C9.98485 20.2026 7.97631 22.1852 5.49864 22.1852H5.48621C3.00855 22.1852 1 20.2026 1 17.757V9.42818C1 6.98258 3.00855 5 5.48621 5ZM28.4403 5H28.4527C30.9303 5 32.9389 6.98258 32.9389 9.42818V17.757C32.9389 20.2026 30.9303 22.1852 28.4527 22.1852H28.4403C25.9626 22.1852 23.954 20.2026 23.954 17.757V9.42818C23.954 6.98258 25.9626 5 28.4403 5ZM16.9571 5H16.9944C20.8447 5 23.9661 8.08095 23.9661 11.8815V15.3038C23.9661 19.1043 20.8447 22.1852 16.9944 22.1852H16.9571C13.1068 22.1852 9.98548 19.1043 9.98548 15.3038V11.8815C9.98548 8.08095 13.1068 5 16.9571 5Z" stroke="#5A6778" stroke-width="0.5" stroke-miterlimit="10"/>
</svg>
