<svg width="48" height="48" viewBox="0 0 48 48" fill="none" xmlns="http://www.w3.org/2000/svg">
<g clip-path="url(#clip0_2455_8066)">
<path fill-rule="evenodd" clip-rule="evenodd" d="M0 0H27.0469V11.0355H48V48H0V0ZM0.516129 0.516129V47.4839H18.0064V37.1664H29.1348V47.4839H47.4839V11.5516H26.5308V0.516129H0.516129ZM28.6187 47.4831V37.6826H18.5225V47.4831H28.6187ZM5.31212 5.72979H9.94366V11.006H5.31212V5.72979ZM5.82825 6.24592V10.4898H9.42753V6.24592H5.82825ZM15.9364 5.72979H20.5679V11.006H15.9364V5.72979ZM16.4525 6.24592V10.4898H20.0518V6.24592H16.4525ZM5.31212 16.6284H9.94366V21.9045H5.31212V16.6284ZM5.82825 17.1445V21.3884H9.42753V17.1445H5.82825ZM15.9364 16.6284H20.5679V21.9045H15.9364V16.6284ZM16.4525 17.1445V21.3884H20.0518V17.1445H16.4525ZM26.5481 16.6284H31.1797V21.9045H26.5481V16.6284ZM27.0643 17.1445V21.3884H30.6636V17.1445H27.0643ZM37.9081 16.6284H42.5397V21.9045H37.9081V16.6284ZM38.4242 17.1445V21.3884H42.0235V17.1445H38.4242ZM5.31212 27.5095H9.94366V32.7857H5.31212V27.5095ZM5.82825 28.0256V32.2696H9.42753V28.0256H5.82825ZM15.9364 27.5095H20.5679V32.7857H15.9364V27.5095ZM16.4525 28.0256V32.2696H20.0518V28.0256H16.4525ZM26.5481 27.5095H31.1797V32.7857H26.5481V27.5095ZM27.0643 28.0256V32.2696H30.6636V28.0256H27.0643ZM37.9081 27.5095H42.5397V32.7857H37.9081V27.5095ZM38.4242 28.0256V32.2696H42.0235V28.0256H38.4242ZM5.31212 37.1664H9.94366V42.4426H5.31212V37.1664ZM5.82825 37.6826V41.9265H9.42753V37.6826H5.82825ZM37.9081 37.1664H42.5397V42.4426H37.9081V37.1664ZM38.4242 37.6826V41.9265H42.0235V37.6826H38.4242Z" fill="#556575"/>
</g>
<defs>
<clipPath id="clip0_2455_8066">
<rect width="48" height="48" fill="white"/>
</clipPath>
</defs>
</svg>
