<svg width="34" height="34" viewBox="0 0 34 34" fill="none" xmlns="http://www.w3.org/2000/svg">
<path d="M7 33H28M27.8617 11.6493C27.8617 8.8249 26.7699 6.1162 24.8265 4.11908C22.8831 2.12196 20.2472 1 17.4988 1C14.7504 1 12.1146 2.12196 10.1712 4.11908C8.2278 6.1162 7.13601 8.8249 7.13601 11.6493C7.13601 17.5185 17.4864 29.8722 17.4864 29.8722C17.4864 29.8722 27.8617 17.5185 27.8617 11.6493ZM21.3371 10.9976C21.3371 13.0319 19.7323 14.681 17.7528 14.681C15.7733 14.681 14.1685 13.0319 14.1685 10.9976C14.1685 8.96339 15.7733 7.31429 17.7528 7.31429C19.7323 7.31429 21.3371 8.96339 21.3371 10.9976Z" stroke="#5A6778" stroke-width="0.560149" stroke-miterlimit="10"/>
</svg>
