<svg width="48" height="48" viewBox="0 0 48 48" fill="none" xmlns="http://www.w3.org/2000/svg">
<g clip-path="url(#clip0_2455_8066)">
<path fill-rule="evenodd" clip-rule="evenodd" d="M36.556 0.516129H48V0H28.7931V0.0251043H0V48H36.556V47.9946H48V47.4785H36.556V0.516129ZM36.0371 0.541233H18.7404V2.93231C19.2657 2.97108 19.7805 3.12503 20.2608 3.38596C20.821 3.69033 21.3211 4.133 21.7329 4.68296C22.1446 5.23286 22.4604 5.87977 22.6631 6.5829C22.8653 7.28417 22.9514 8.02871 22.9169 8.77153V9.21048H14.0348V8.7715C14.0003 8.02868 14.0865 7.28416 14.2886 6.5829C14.4914 5.87977 14.8071 5.23286 15.2188 4.68296C15.6306 4.133 16.1308 3.69033 16.691 3.38596C17.1743 3.12335 17.6926 2.96911 18.2214 2.93158V0.541233H0.518919V47.4839H6.22455V28.8226H6.74347V47.4839H28.7931V47.4785H30.5819V28.8226H31.1008V47.4785H36.0371V0.541233ZM18.2214 3.44925C17.7823 3.48574 17.3489 3.61663 16.9398 3.83892C16.4513 4.10428 16.0065 4.49508 15.635 4.99123C15.2635 5.48745 14.9743 6.0772 14.7875 6.72517C14.606 7.35463 14.5254 8.02415 14.5509 8.69436H22.4008C22.4263 8.02414 22.3458 7.35462 22.1643 6.72517C21.9775 6.0772 21.6883 5.48745 21.3167 4.99123C20.9452 4.49508 20.5004 4.10428 20.012 3.83892C19.606 3.61833 19.1761 3.48775 18.7404 3.4501V4.04026H18.2214V3.44925ZM43.0864 2.88547L45.7528 6.0778L45.3537 6.40761L43.346 4.0039V43.9219L45.3536 41.5174L45.7528 41.8471L43.0874 45.0395L40.4219 41.8471L40.8211 41.5174L42.8271 43.9199V4.00428L40.8212 6.40754L40.4219 6.07786L43.0864 2.88547ZM26.5769 33.4341H10.3854V32.918H26.5769V33.4341ZM18.2214 47.3463V33.7012H18.7404V47.3463H18.2214ZM13.5633 39.3608H6.94509V38.8447H14.0822V47.3459H13.5633V39.3608ZM23.2312 38.8447H30.3684V39.3608H23.7502V47.3459H23.2312V38.8447Z" fill="#556575"/>
</g>
<defs>
<clipPath id="clip0_2455_8066">
<rect width="48" height="48" fill="white"/>
</clipPath>
</defs>
</svg>
