<svg width="48" height="48" viewBox="0 0 48 48" fill="none" xmlns="http://www.w3.org/2000/svg">
<g clip-path="url(#clip0_2454_4416)">
<path fill-rule="evenodd" clip-rule="evenodd" d="M35.871 0.516129C34.0181 0.516129 32.5161 2.01814 32.5161 3.87097C32.5161 5.72379 34.0181 7.22581 35.871 7.22581C37.7238 7.22581 39.2258 5.72379 39.2258 3.87097C39.2258 2.01814 37.7238 0.516129 35.871 0.516129ZM32 3.87097C32 1.73309 33.7331 0 35.871 0C38.0088 0 39.7419 1.73309 39.7419 3.87097C39.7419 6.00884 38.0088 7.74193 35.871 7.74193C33.7331 7.74193 32 6.00884 32 3.87097ZM31.8686 10.1454C33.1653 10.5646 34.4044 11.4378 35.3943 12.4415L35.6195 12.6699L35.8448 12.4415C36.8347 11.4377 38.0834 10.5607 39.3805 10.1517C40.684 9.74071 42.0547 9.79913 43.2351 10.7025C44.8762 11.9585 45.9355 13.9383 45.9355 16.1654V22.7097H48V29.4194H45.9355V48H2.06452V29.4194H0V22.7097H8.26784C8.39314 21.0626 9.70776 19.748 11.3548 19.6227V19.0968H10.5806V18.5806H12.6452V19.0968H11.871V19.6227C13.518 19.748 14.8327 21.0626 14.958 22.7097H24.7742V16.6948C24.7742 14.1677 26.0404 11.9364 27.9718 10.6007C29.1899 9.75825 30.5662 9.72431 31.8686 10.1454ZM0.516129 23.2258V28.9032H47.4839V23.2258H0.516129ZM25.2903 22.7097V16.6948C25.2903 14.3443 26.4674 12.2686 28.2654 11.0252C29.3194 10.2962 30.5192 10.2516 31.7098 10.6365C32.9061 11.0232 34.0768 11.8407 35.0268 12.8039L35.6195 13.4049L36.2122 12.8039C37.1621 11.8407 38.3414 11.0206 39.5357 10.644C40.7237 10.2694 41.908 10.3368 42.9214 11.1124C44.4404 12.2749 45.4193 14.1058 45.4193 16.1654V22.7097H25.2903ZM14.44 22.7097C14.3097 21.2628 13.0937 20.129 11.6129 20.129C10.1321 20.129 8.91615 21.2628 8.78577 22.7097H14.44ZM2.58065 29.4194V47.4839H45.4193V29.4194H2.58065Z" fill="#556575"/>
</g>
<defs>
<clipPath id="clip0_2454_4416">
<rect width="48" height="48" fill="white"/>
</clipPath>
</defs>
</svg>
