<svg width="48" height="48" viewBox="0 0 48 48" fill="none" xmlns="http://www.w3.org/2000/svg">
<g clip-path="url(#clip0_2455_8066)">
<mask id="path-1-inside-1_2455_8066" fill="white">
<path d="M15.1038 19.2812H6.96557V27.8824H15.1038V19.2812Z"/>
<path d="M15.1038 35.4854H6.96557V44.0866H15.1038V35.4854Z"/>
<path d="M41.2096 35.4854H33.0714V44.0866H41.2096V35.4854Z"/>
<path d="M28.1517 19.2812H20.0135V27.8824H28.1517V19.2812Z"/>
<path d="M28.1517 3.78304H20.0135V12.3843H28.1517V3.78304Z"/>
<path d="M5.21252 48H0V0H5.21252"/>
<path d="M43.3592 0H48V48H43.3592"/>
<path d="M22.7603 33.1707H23.827V43.0355H22.7603V35.5242C22.1602 36.1724 21.2802 36.5388 20.4135 36.5388V35.5101C21.7202 35.4537 22.7603 34.4391 22.7603 33.1707Z"/>
<path d="M34.0094 26.6821V25.5688C34.9028 24.9347 36.0628 24.1314 37.0495 23.2295C38.1962 22.1725 39.1296 20.9324 39.1296 19.7063C39.1296 18.5507 38.3696 17.7756 37.2362 17.7756C36.1028 17.7756 35.2094 18.5648 34.9294 20.0164L33.9561 19.6922C34.2494 17.7756 35.5428 16.6764 37.3029 16.6764C39.0496 16.6764 40.2497 17.8602 40.2497 19.5936C40.2497 21.9611 37.4495 24.3851 35.6495 25.6111H40.5297V26.6821H34.0094Z"/>
<path d="M38.5029 10.9891V8.93159H33.6894V7.86055L37.8629 1.12431H39.5696V7.86055H40.8897V8.93159H39.5696V10.9891H38.5029ZM34.9161 7.86055H38.5029V2.13897H38.3963L34.9161 7.74781V7.86055Z"/>
<path d="M11.2604 11.1018C9.607 11.1018 8.31361 10.2563 7.92692 8.81885L8.9403 8.50881C9.32699 9.53757 10.1804 10.0026 11.3004 10.0026C12.8872 10.0026 13.6605 9.08661 13.6605 7.74781C13.6605 6.40902 12.8871 5.64802 11.5804 5.64802C10.6737 5.64802 9.88701 6.01443 9.30032 6.6345L8.30027 6.35265L8.80696 1.12431H14.1672V2.19534H9.72701L9.40699 5.36617C10.0604 4.85884 10.7937 4.57699 11.7004 4.57699C13.5672 4.57699 14.7806 5.77485 14.7806 7.67735C14.7806 9.70668 13.4072 11.1018 11.2604 11.1018Z"/>
</mask>
<path d="M6.96557 19.2812V18.7812H6.46557V19.2812H6.96557ZM15.1038 19.2812H15.6038V18.7812H15.1038V19.2812ZM15.1038 27.8824V28.3824H15.6038V27.8824H15.1038ZM6.96557 27.8824H6.46557V28.3824H6.96557V27.8824ZM6.96557 35.4854V34.9854H6.46557V35.4854H6.96557ZM15.1038 35.4854H15.6038V34.9854H15.1038V35.4854ZM15.1038 44.0866V44.5866H15.6038V44.0866H15.1038ZM6.96557 44.0866H6.46557V44.5866H6.96557V44.0866ZM33.0714 35.4854V34.9854H32.5714V35.4854H33.0714ZM41.2096 35.4854H41.7096V34.9854H41.2096V35.4854ZM41.2096 44.0866V44.5866H41.7096V44.0866H41.2096ZM33.0714 44.0866H32.5714V44.5866H33.0714V44.0866ZM20.0135 19.2812V18.7812H19.5135V19.2812H20.0135ZM28.1517 19.2812H28.6517V18.7812H28.1517V19.2812ZM28.1517 27.8824V28.3824H28.6517V27.8824H28.1517ZM20.0135 27.8824H19.5135V28.3824H20.0135V27.8824ZM20.0135 3.78304V3.28304H19.5135V3.78304H20.0135ZM28.1517 3.78304H28.6517V3.28304H28.1517V3.78304ZM28.1517 12.3843V12.8843H28.6517V12.3843H28.1517ZM20.0135 12.3843H19.5135V12.8843H20.0135V12.3843ZM0 48H-0.5V48.5H0V48ZM0 0V-0.5H-0.5V0H0ZM48 0H48.5V-0.5H48V0ZM48 48V48.5H48.5V48H48ZM22.7603 33.1707V32.6707H22.2603V33.1707H22.7603ZM23.827 33.1707H24.327V32.6707H23.827V33.1707ZM23.827 43.0355V43.5355H24.327V43.0355H23.827ZM22.7603 43.0355H22.2603V43.5355H22.7603V43.0355ZM22.7603 35.5242H23.2603V34.2479L22.3933 35.1845L22.7603 35.5242ZM20.4135 36.5388H19.9135V37.0388H20.4135V36.5388ZM20.4135 35.5101L20.3919 35.0106L19.9135 35.0312V35.5101H20.4135ZM34.0094 26.6821H33.5094V27.1821H34.0094V26.6821ZM34.0094 25.5688L33.72 25.1611L33.5094 25.3106V25.5688H34.0094ZM37.0495 23.2295L37.3869 23.5985L37.3884 23.5971L37.0495 23.2295ZM34.9294 20.0164L34.7715 20.4907L35.3124 20.6709L35.4204 20.1111L34.9294 20.0164ZM33.9561 19.6922L33.4618 19.6166L33.398 20.0334L33.7981 20.1666L33.9561 19.6922ZM35.6495 25.6111L35.368 25.1979L34.0272 26.1111H35.6495V25.6111ZM40.5297 25.6111H41.0297V25.1111H40.5297V25.6111ZM40.5297 26.6821V27.1821H41.0297V26.6821H40.5297ZM38.5029 10.9891H38.0029V11.4891H38.5029V10.9891ZM38.5029 8.93159H39.0029V8.43159H38.5029V8.93159ZM33.6894 8.93159H33.1894V9.43159H33.6894V8.93159ZM33.6894 7.86055L33.2643 7.59722L33.1894 7.71822V7.86055H33.6894ZM37.8629 1.12431V0.624309H37.5845L37.4379 0.860973L37.8629 1.12431ZM39.5696 1.12431H40.0696V0.624309H39.5696V1.12431ZM39.5696 7.86055H39.0696V8.36055H39.5696V7.86055ZM40.8897 7.86055H41.3897V7.36055H40.8897V7.86055ZM40.8897 8.93159V9.43159H41.3897V8.93159H40.8897ZM39.5696 8.93159V8.43159H39.0696V8.93159H39.5696ZM39.5696 10.9891V11.4891H40.0696V10.9891H39.5696ZM34.9161 7.86055H34.4161V8.36055H34.9161V7.86055ZM38.5029 7.86055V8.36055H39.0029V7.86055H38.5029ZM38.5029 2.13897H39.0029V1.63897H38.5029V2.13897ZM38.3963 2.13897V1.63897H38.1181L37.9714 1.87536L38.3963 2.13897ZM34.9161 7.74781L34.4912 7.4842L34.4161 7.6053V7.74781H34.9161ZM7.92692 8.81885L7.78065 8.34072L7.31856 8.4821L7.44409 8.94874L7.92692 8.81885ZM8.9403 8.50881L9.40833 8.33289L9.2431 7.8933L8.79402 8.03069L8.9403 8.50881ZM9.30032 6.6345L9.16469 7.11575L9.45571 7.19777L9.66351 6.97814L9.30032 6.6345ZM8.30027 6.35265L7.80261 6.30442L7.76228 6.7205L8.16464 6.8339L8.30027 6.35265ZM8.80696 1.12431V0.624309H8.35308L8.3093 1.07608L8.80696 1.12431ZM14.1672 1.12431H14.6672V0.624309H14.1672V1.12431ZM14.1672 2.19534V2.69534H14.6672V2.19534H14.1672ZM9.72701 2.19534V1.69534H9.27493L9.22953 2.14514L9.72701 2.19534ZM9.40699 5.36617L8.90952 5.31596L8.7924 6.47643L9.71365 5.76109L9.40699 5.36617ZM6.96557 19.7812H15.1038V18.7812H6.96557V19.7812ZM14.6038 19.2812V27.8824H15.6038V19.2812H14.6038ZM15.1038 27.3824H6.96557V28.3824H15.1038V27.3824ZM7.46557 27.8824V19.2812H6.46557V27.8824H7.46557ZM6.96557 35.9854H15.1038V34.9854H6.96557V35.9854ZM14.6038 35.4854V44.0866H15.6038V35.4854H14.6038ZM15.1038 43.5866H6.96557V44.5866H15.1038V43.5866ZM7.46557 44.0866V35.4854H6.46557V44.0866H7.46557ZM33.0714 35.9854H41.2096V34.9854H33.0714V35.9854ZM40.7096 35.4854V44.0866H41.7096V35.4854H40.7096ZM41.2096 43.5866H33.0714V44.5866H41.2096V43.5866ZM33.5714 44.0866V35.4854H32.5714V44.0866H33.5714ZM20.0135 19.7812H28.1517V18.7812H20.0135V19.7812ZM27.6517 19.2812V27.8824H28.6517V19.2812H27.6517ZM28.1517 27.3824H20.0135V28.3824H28.1517V27.3824ZM20.5135 27.8824V19.2812H19.5135V27.8824H20.5135ZM20.0135 4.28304H28.1517V3.28304H20.0135V4.28304ZM27.6517 3.78304V12.3843H28.6517V3.78304H27.6517ZM28.1517 11.8843H20.0135V12.8843H28.1517V11.8843ZM20.5135 12.3843V3.78304H19.5135V12.3843H20.5135ZM5.21252 47.5H0V48.5H5.21252V47.5ZM0.5 48V0H-0.5V48H0.5ZM0 0.5H5.21252V-0.5H0V0.5ZM43.3592 0.5H48V-0.5H43.3592V0.5ZM47.5 0V48H48.5V0H47.5ZM48 47.5H43.3592V48.5H48V47.5ZM22.7603 33.6707H23.827V32.6707H22.7603V33.6707ZM23.327 33.1707V43.0355H24.327V33.1707H23.327ZM23.827 42.5355H22.7603V43.5355H23.827V42.5355ZM23.2603 43.0355V35.5242H22.2603V43.0355H23.2603ZM22.3933 35.1845C21.8917 35.7265 21.1465 36.0388 20.4135 36.0388V37.0388C21.4139 37.0388 22.4288 36.6183 23.1272 35.8638L22.3933 35.1845ZM20.9135 36.5388V35.5101H19.9135V36.5388H20.9135ZM20.435 36.0096C21.9846 35.9428 23.2603 34.7309 23.2603 33.1707H22.2603C22.2603 34.1472 21.4559 34.9647 20.3919 35.0106L20.435 36.0096ZM34.5094 26.6821V25.5688H33.5094V26.6821H34.5094ZM34.2988 25.9765C35.1831 25.3488 36.3723 24.5259 37.3869 23.5985L36.7122 22.8604C35.7533 23.7369 34.6224 24.5205 33.72 25.1611L34.2988 25.9765ZM37.3884 23.5971C37.9809 23.051 38.5342 22.4435 38.9421 21.7986C39.349 21.1555 39.6296 20.446 39.6296 19.7063H38.6296C38.6296 20.1927 38.4435 20.7163 38.0971 21.264C37.7516 21.81 37.2649 22.351 36.7107 22.8618L37.3884 23.5971ZM39.6296 19.7063C39.6296 19.0171 39.401 18.4023 38.9649 17.9575C38.528 17.512 37.9202 17.2756 37.2362 17.2756V18.2756C37.6855 18.2756 38.0245 18.4268 38.2509 18.6577C38.4782 18.8894 38.6296 19.24 38.6296 19.7063H39.6296ZM37.2362 17.2756C36.5465 17.2756 35.9154 17.5187 35.419 17.9886C34.9272 18.4542 34.5937 19.117 34.4385 19.9216L35.4204 20.1111C35.5452 19.4642 35.7983 19.0066 36.1066 18.7148C36.4103 18.4272 36.7925 18.2756 37.2362 18.2756V17.2756ZM35.0874 19.542L34.114 19.2178L33.7981 20.1666L34.7715 20.4907L35.0874 19.542ZM34.4503 19.7679C34.5823 18.9054 34.9323 18.2644 35.4112 17.8397C35.8891 17.4159 36.5301 17.1764 37.3029 17.1764V16.1764C36.3156 16.1764 35.4298 16.4866 34.7477 17.0915C34.0665 17.6956 33.6231 18.5625 33.4618 19.6166L34.4503 19.7679ZM37.3029 17.1764C38.0609 17.1764 38.6659 17.4313 39.0797 17.8405C39.493 18.2492 39.7497 18.8456 39.7497 19.5936H40.7497C40.7497 18.6082 40.4063 17.746 39.7829 17.1295C39.16 16.5134 38.2916 16.1764 37.3029 16.1764V17.1764ZM39.7497 19.5936C39.7497 20.5918 39.1499 21.6728 38.2486 22.7008C37.3603 23.7141 36.2463 24.5996 35.368 25.1979L35.9309 26.0244C36.8527 25.3965 38.0388 24.457 39.0006 23.36C39.9494 22.2777 40.7497 20.9629 40.7497 19.5936H39.7497ZM35.6495 26.1111H40.5297V25.1111H35.6495V26.1111ZM40.0297 25.6111V26.6821H41.0297V25.6111H40.0297ZM40.5297 26.1821H34.0094V27.1821H40.5297V26.1821ZM39.0029 10.9891V8.93159H38.0029V10.9891H39.0029ZM38.5029 8.43159H33.6894V9.43159H38.5029V8.43159ZM34.1894 8.93159V7.86055H33.1894V8.93159H34.1894ZM34.1144 8.12389L38.2879 1.38764L37.4379 0.860973L33.2643 7.59722L34.1144 8.12389ZM37.8629 1.62431H39.5696V0.624309H37.8629V1.62431ZM39.0696 1.12431V7.86055H40.0696V1.12431H39.0696ZM39.5696 8.36055H40.8897V7.36055H39.5696V8.36055ZM40.3897 7.86055V8.93159H41.3897V7.86055H40.3897ZM40.8897 8.43159H39.5696V9.43159H40.8897V8.43159ZM39.0696 8.93159V10.9891H40.0696V8.93159H39.0696ZM39.5696 10.4891H38.5029V11.4891H39.5696V10.4891ZM34.9161 8.36055H38.5029V7.36055H34.9161V8.36055ZM39.0029 7.86055V2.13897H38.0029V7.86055H39.0029ZM38.5029 1.63897H38.3963V2.63897H38.5029V1.63897ZM37.9714 1.87536L34.4912 7.4842L35.341 8.01143L38.8211 2.40259L37.9714 1.87536ZM34.4161 7.74781V7.86055H35.4161V7.74781H34.4161ZM11.2604 10.6018C9.78127 10.6018 8.72524 9.86172 8.40976 8.68896L7.44409 8.94874C7.90198 10.6509 9.43273 11.6018 11.2604 11.6018V10.6018ZM8.0732 9.29697L9.08658 8.98694L8.79402 8.03069L7.78065 8.34072L8.0732 9.29697ZM8.47227 8.68473C8.70172 9.29516 9.08061 9.76091 9.5851 10.0684C10.0838 10.3724 10.6731 10.5026 11.3004 10.5026V9.50262C10.8077 9.50262 10.4103 9.40031 10.1056 9.21457C9.80671 9.03238 9.56558 8.75123 9.40833 8.33289L8.47227 8.68473ZM11.3004 10.5026C12.1899 10.5026 12.9221 10.2438 13.4311 9.72872C13.9385 9.2153 14.1605 8.51163 14.1605 7.74781H13.1605C13.1605 8.32279 12.9958 8.74653 12.7199 9.02581C12.4455 9.30342 11.9976 9.50262 11.3004 9.50262V10.5026ZM14.1605 7.74781C14.1605 6.98293 13.9379 6.31734 13.4645 5.84277C12.9911 5.36813 12.3302 5.14802 11.5804 5.14802V6.14802C12.1374 6.14802 12.5165 6.30841 12.7565 6.54897C12.9965 6.7896 13.1605 7.1739 13.1605 7.74781H14.1605ZM11.5804 5.14802C10.5299 5.14802 9.61375 5.57574 8.93713 6.29086L9.66351 6.97814C10.1603 6.45312 10.8175 6.14802 11.5804 6.14802V5.14802ZM9.43596 6.15325L8.43591 5.8714L8.16464 6.8339L9.16469 7.11575L9.43596 6.15325ZM8.79794 6.40088L9.30463 1.17254L8.3093 1.07608L7.80261 6.30442L8.79794 6.40088ZM8.80696 1.62431H14.1672V0.624309H8.80696V1.62431ZM13.6672 1.12431V2.19534H14.6672V1.12431H13.6672ZM14.1672 1.69534H9.72701V2.69534H14.1672V1.69534ZM9.22953 2.14514L8.90952 5.31596L9.90446 5.41638L10.2245 2.24555L9.22953 2.14514ZM9.71365 5.76109C10.2849 5.31749 10.9117 5.07699 11.7004 5.07699V4.07699C10.6757 4.07699 9.83578 4.40018 9.10034 4.97125L9.71365 5.76109ZM11.7004 5.07699C12.5251 5.07699 13.1596 5.33943 13.5868 5.76709C14.0139 6.19466 14.2806 6.83422 14.2806 7.67735H15.2806C15.2806 6.61799 14.9406 5.70736 14.2943 5.06037C13.6481 4.41348 12.7425 4.07699 11.7004 4.07699V5.07699ZM14.2806 7.67735C14.2806 8.57644 13.9786 9.29802 13.4747 9.79436C12.9704 10.291 12.2234 10.6018 11.2604 10.6018V11.6018C12.4442 11.6018 13.4572 11.2151 14.1764 10.5068C14.8958 9.79826 15.2806 8.80759 15.2806 7.67735H14.2806Z" fill="#556575" mask="url(#path-1-inside-1_2455_8066)"/>
</g>
<defs>
<clipPath id="clip0_2455_8066">
<rect width="48" height="48" fill="white"/>
</clipPath>
</defs>
</svg>
