<svg width="48" height="48" viewBox="0 0 48 48" fill="none" xmlns="http://www.w3.org/2000/svg">
<g clip-path="url(#clip0_2455_8066)">
<path fill-rule="evenodd" clip-rule="evenodd" d="M6.72452 0.516129C5.40771 0.516129 4.39034 1.46548 4.39034 2.57804V4.43361H4.40661V7.91511H4.39034V9.76465C4.39034 10.8772 5.4077 11.8265 6.72452 11.8265H43.5033C44.8201 11.8265 45.8374 10.8772 45.8374 9.76465V7.91511H45.8272V4.43361H45.8374V2.57804C45.8374 1.46548 44.8201 0.516129 43.5033 0.516129H6.72452ZM46.3536 4.43361V2.57804C46.3536 1.12806 45.0498 0 43.5033 0H6.72452C5.17801 0 3.87421 1.12806 3.87421 2.57804V4.43361H2.23378V5.94739C1.80375 5.98601 1.38772 6.06497 1.0353 6.21226C0.748746 6.33202 0.491144 6.50225 0.305077 6.74498C0.116434 6.99108 0.0142847 7.29499 0.0142847 7.65613V13.5537C-0.0561884 14.1512 0.136299 14.7459 0.542931 15.2117C0.949462 15.6774 1.5369 15.9774 2.17728 16.0567C2.52767 16.1359 3.45701 16.3445 4.74653 16.634C10.2676 17.8733 22.3914 20.5946 23.9486 20.9887C24.4307 21.1108 24.8174 21.2154 25.1288 21.3225C25.441 21.4299 25.6621 21.5348 25.8205 21.6509C25.9734 21.763 26.0699 21.887 26.1319 22.0431C26.1964 22.2053 26.2291 22.4163 26.2291 22.7096V25.3659H22.0817V48H30.9204V25.3659H26.7453V22.7096C26.7453 22.3837 26.7098 22.0997 26.6116 21.8526C26.511 21.5993 26.3505 21.3995 26.1257 21.2347C25.9065 21.0739 25.6294 20.9488 25.2966 20.8344C24.963 20.7196 24.5578 20.6105 24.0752 20.4884C22.5099 20.0922 10.3568 17.3643 4.84346 16.1267C3.54541 15.8354 2.61542 15.6266 2.27834 15.5504L2.26522 15.5474L2.25186 15.5458C1.72395 15.4831 1.25119 15.2382 0.931753 14.8723C0.613296 14.5075 0.471665 14.0514 0.528386 13.6016L0.530414 13.5856V7.65613C0.530414 7.39804 0.601244 7.207 0.714704 7.05898C0.830741 6.90761 1.00437 6.78457 1.23432 6.68847C1.51428 6.57146 1.85787 6.50238 2.23378 6.46583V7.91511H3.87421V9.76465C3.87421 11.2146 5.17802 12.3426 6.72452 12.3426H43.5033C45.0498 12.3426 46.3536 11.2146 46.3536 9.76465V7.91511H48V4.43361H46.3536ZM46.3536 7.39898V4.94974H47.4839V7.39898H46.3536ZM3.87421 4.94974H2.74991V5.9187C2.84052 5.9164 2.93087 5.91538 3.02052 5.91538H3.87421V4.94974ZM3.87421 6.43151V7.39898H2.74991V6.43504C2.8393 6.43263 2.92963 6.43151 3.02052 6.43151H3.87421ZM22.5979 25.882V47.4839H30.4042V25.882H22.5979Z" fill="#556575"/>
</g>
<defs>
<clipPath id="clip0_2455_8066">
<rect width="48" height="48" fill="white"/>
</clipPath>
</defs>
</svg>
