<svg width="48" height="48" viewBox="0 0 48 48" fill="none" xmlns="http://www.w3.org/2000/svg">
<g clip-path="url(#clip0_2454_4416)">
<path fill-rule="evenodd" clip-rule="evenodd" d="M47.9996 0L47.9996 0.252991C48 13.1066 48 29.9603 48 42.8139V45.7524C48.0001 46.2366 48.0001 46.7763 47.8577 47.1949C47.7827 47.4155 47.6623 47.6225 47.4649 47.7729C47.2653 47.925 47.0124 48 46.7097 48C46.407 48 46.1543 47.925 45.9554 47.7724C45.7586 47.6215 45.6396 47.4141 45.566 47.1936C45.4287 46.782 45.4289 46.2527 45.429 45.7754L45.4291 24.023C45.4291 22.1711 44.6995 20.9644 43.9286 19.6892L43.9119 19.6615C43.1333 18.3737 42.3226 17.017 42.3226 14.92C42.3226 12.8641 42.848 10.1838 43.4973 7.77509C44.1465 5.36671 44.9285 3.19782 45.4563 2.16337C45.9876 1.12227 46.5279 0.578839 46.9576 0.296168C47.1722 0.154969 47.3567 0.080598 47.4942 0.0417227C47.5628 0.022338 47.6191 0.0119283 47.6611 0.00637089C47.6821 0.00359407 47.6995 0.00203346 47.713 0.00116662C47.7197 0.000733257 47.7255 0.000473424 47.7302 0.000321615L47.7366 0.000166746L47.7392 0.000134702L47.7404 0.000127347C47.7404 0.000127347 47.7415 0.000124753 47.7416 0.252998L47.7415 0.000124739L47.9996 0ZM47.4835 0.584171C47.4151 0.614651 47.335 0.657053 47.2453 0.716064C46.9058 0.939382 46.419 1.40768 45.9179 2.38955C45.4135 3.37808 44.6422 5.50806 43.9963 7.90425C43.3504 10.3001 42.8387 12.9301 42.8387 14.92C42.8387 16.8689 43.5812 18.1223 44.3559 19.4038L44.3865 19.4543C45.1533 20.7224 45.9452 22.032 45.9452 24.023V45.7242C45.9452 46.2454 45.9457 46.704 46.0566 47.0363C46.1096 47.1951 46.1817 47.3038 46.2735 47.3741C46.363 47.4428 46.4962 47.4943 46.7097 47.4943C46.9231 47.4943 47.0573 47.4428 47.148 47.3737C47.241 47.3028 47.3141 47.1937 47.3681 47.035C47.481 46.7031 47.4839 46.2442 47.4839 45.7242V42.8139C47.4839 30.0707 47.4839 13.3274 47.4835 0.584171ZM0.519582 11.6323V12.3911H0.516129V12.8959C0.520414 13.5387 0.756131 14.1274 1.0691 14.6948C1.21436 14.9581 1.37315 15.2116 1.53093 15.4634C1.5433 15.4832 1.55566 15.5029 1.56801 15.5226C1.73602 15.791 1.90251 16.0597 2.03727 16.3238C2.30108 16.8408 2.44303 17.2209 2.51652 17.5547C2.59024 17.8895 2.59215 18.166 2.59035 18.4606V45.724C2.59035 46.2452 2.59083 46.7039 2.70175 47.0362C2.75473 47.1949 2.82685 47.3036 2.91864 47.374C3.00816 47.4427 3.14136 47.4941 3.35484 47.4941C3.56828 47.4941 3.70245 47.4427 3.79318 47.3735C3.88613 47.3027 3.95925 47.1935 4.01324 47.0348C4.12614 46.703 4.12903 46.2441 4.12903 45.724V18.4598L4.12903 18.4588L4.12911 18.4399C4.13018 18.1744 4.13128 17.9034 4.19953 17.5728C4.26944 17.2342 4.4072 16.8435 4.67241 16.3238C4.80832 16.0574 4.97795 15.7933 5.14853 15.532C5.16617 15.505 5.18383 15.478 5.20149 15.451C5.35676 15.2136 5.51183 14.9766 5.65365 14.7277C5.96783 14.1763 6.20336 13.5893 6.19357 12.9002L6.19352 12.8967L6.19325 11.6323H0.519582ZM0.519582 11.1266H2.06452V0.25326H2.58065V11.1266H4.12903V0.25326H4.64516V11.1266H6.197V0.25326H6.71313V12.3911H6.70956L6.70968 12.8949C6.7208 13.7076 6.44036 14.3845 6.10429 14.9742C5.95433 15.2374 5.79059 15.4877 5.63636 15.7234C5.61853 15.7507 5.60082 15.7777 5.58328 15.8046C5.41182 16.0672 5.2562 16.3106 5.13405 16.55C4.88312 17.0417 4.76396 17.3896 4.70541 17.6731C4.64727 17.9547 4.64632 18.1831 4.64519 18.4546L4.64516 18.4598L4.64516 45.7522C4.64522 46.2365 4.64528 46.7762 4.50289 47.1948C4.42785 47.4154 4.30741 47.6223 4.11005 47.7727C3.91045 47.9248 3.65753 47.9998 3.35484 47.9998C3.05219 47.9998 2.7995 47.9249 2.60053 47.7723C2.40381 47.6214 2.28481 47.414 2.21119 47.1934C2.07383 46.7819 2.07403 46.2525 2.07421 45.7753L2.07423 18.4598L2.07423 18.4583C2.07601 18.1675 2.073 17.9384 2.012 17.6614C1.95071 17.383 1.82795 17.0444 1.57563 16.55C1.45233 16.3083 1.29735 16.0575 1.12806 15.7871C1.11539 15.7668 1.10264 15.7465 1.08983 15.726C0.933367 15.4763 0.76739 15.2114 0.61505 14.9353C0.285224 14.3373 0.00487531 13.662 5.04524e-06 12.8983L0 12.8967V11.1266H0.00345255V0.25326H0.519582V11.1266ZM24.5196 13.621C16.9658 13.621 10.8422 19.6213 10.8422 27.0232C10.8422 34.425 16.9658 40.4253 24.5196 40.4253C32.0734 40.4253 38.197 34.425 38.197 27.0232C38.197 19.6213 32.0734 13.621 24.5196 13.621ZM10.326 27.0232C10.326 19.342 16.6807 13.1152 24.5196 13.1152C32.3585 13.1152 38.7131 19.342 38.7131 27.0232C38.7131 34.7043 32.3585 40.9311 24.5196 40.9311C16.6807 40.9311 10.326 34.7043 10.326 27.0232ZM24.5196 18.6784C22.8352 18.6784 21.1887 19.1678 19.7883 20.0848C18.3878 21.0017 17.2962 22.305 16.6516 23.8298C16.0071 25.3545 15.8385 27.0324 16.1671 28.6512C16.4957 30.2699 17.3067 31.7568 18.4977 32.9238C19.6887 34.0908 21.2062 34.8856 22.8581 35.2076C24.5101 35.5296 26.2224 35.3643 27.7785 34.7327C29.3346 34.1011 30.6646 33.0315 31.6004 31.6592C32.5362 30.2869 33.0357 28.6736 33.0357 27.0232C33.0357 24.81 32.1385 22.6875 30.5414 21.1225C28.9443 19.5576 26.7782 18.6784 24.5196 18.6784ZM19.5015 19.6643C20.9869 18.6918 22.7331 18.1727 24.5196 18.1727C26.9151 18.1727 29.2125 19.1051 30.9063 20.7649C32.6002 22.4247 33.5518 24.6759 33.5518 27.0232C33.5518 28.7736 33.022 30.4848 32.0295 31.9402C31.0371 33.3957 29.6264 34.5301 27.976 35.1999C26.3256 35.8698 24.5095 36.0451 22.7574 35.7036C21.0054 35.3621 19.396 34.5192 18.1328 33.2814C16.8696 32.0437 16.0094 30.4666 15.6609 28.7498C15.3124 27.033 15.4911 25.2534 16.1748 23.6362C16.8584 22.019 18.0162 20.6368 19.5015 19.6643Z" fill="#556575"/>
</g>
<defs>
<clipPath id="clip0_2454_4416">
<rect width="48" height="48" fill="white"/>
</clipPath>
</defs>
</svg>
