<svg width="48" height="48" viewBox="0 0 48 48" fill="none" xmlns="http://www.w3.org/2000/svg">
<g clip-path="url(#clip0_2455_8066)">
<path fill-rule="evenodd" clip-rule="evenodd" d="M0 0H48V47.9993L0 48V0ZM0.517101 16.087H5.31531L5.32425 16.0864C6.06826 16.0348 6.81325 16.172 7.48981 16.4853C8.09875 16.7673 8.63443 17.1835 9.05705 17.7016C9.09693 17.751 9.13579 17.8013 9.17359 17.8525C9.61382 18.4484 9.89669 19.1454 9.99613 19.8792C10.0956 20.6129 10.0084 21.3599 9.74258 22.0512L9.74002 22.0581C9.39665 23.0338 9.21554 24.0591 9.20386 25.0932C9.20069 25.1725 9.1993 25.2516 9.19968 25.3307C9.1943 26.4446 9.54097 27.5337 10.1929 28.4417C10.8818 29.4012 11.872 30.1036 13.0064 30.4372C13.9177 30.7089 14.8935 30.6711 15.7809 30.3298L15.7885 30.3267C19.9251 28.5842 23.4469 29.0459 26.046 30.6021C28.6535 32.1635 30.3526 34.8384 30.8118 37.5551C30.8878 38.0244 30.926 38.4983 30.9261 38.9736C30.9261 38.9736 30.9261 38.9736 30.9261 38.9736V47.4832L0.517101 47.4839V16.087ZM31.4432 47.4832H47.4829V37.7206H31.3658C31.4195 38.1361 31.4454 38.5549 31.4432 38.9741V47.4832ZM31.2832 37.2044H35.5144V25.3943H13.3328V29.9401C14.0811 30.1239 14.8695 30.0754 15.5916 29.7984C19.8993 27.9993 23.5945 28.461 26.3375 30.1087C29.004 31.7104 30.7498 34.4207 31.2832 37.2044ZM12.8157 29.7783V25.3943H9.71755C9.7356 26.3604 10.0467 27.301 10.6132 28.09C11.1658 28.8597 11.9331 29.446 12.8157 29.7783ZM9.72814 24.8782H23.1306V13.0492H0.517101V15.5534H5.29785C6.1217 15.5001 6.94583 15.654 7.69477 16.0009C8.38139 16.319 8.98464 16.79 9.45873 17.3766C9.51091 17.4406 9.56156 17.506 9.6106 17.5727C10.1033 18.2433 10.418 19.0274 10.5254 19.8521C10.6325 20.6751 10.5297 21.5118 10.2264 22.2846C9.93276 23.1203 9.765 23.9943 9.72814 24.8782ZM0.517101 12.5331H12.7454V0.516129H0.517101V12.5331ZM13.2625 0.516129V12.5331H35.5144V0.516129H13.2625ZM36.0315 0.516129V12.5331H47.4829V0.516129H36.0315ZM47.4829 13.0492H23.6477V24.8782H47.4829V13.0492ZM47.4829 25.3943H36.0315V37.2044H47.4829V25.3943Z" fill="#556575"/>
</g>
<defs>
<clipPath id="clip0_2455_8066">
<rect width="48" height="48" fill="white"/>
</clipPath>
</defs>
</svg>
