<svg width="48" height="48" viewBox="0 0 48 48" fill="none" xmlns="http://www.w3.org/2000/svg">
<g clip-path="url(#clip0_2454_4416)">
<path fill-rule="evenodd" clip-rule="evenodd" d="M0 7.42054C0 3.32229 3.30443 0 7.38064 0H40.6194C44.6956 0 48 3.32229 48 7.42054V48H47.4839V45.1459H41.8065V48H41.2903V7.42054C41.2903 4.13627 38.8696 1.37189 35.6129 0.683577V34.2486H36.3871V34.7676H26.0645V34.2486H26.8387L26.8387 0.518919H20.129L20.129 10.3926C21.2903 10.5217 22.1935 11.5116 22.1935 12.7135C22.1935 14.0032 21.1537 15.0486 19.871 15.0486C18.5882 15.0486 17.5484 14.0032 17.5484 12.7135C17.5484 11.5116 18.4516 10.5217 19.6129 10.3926L19.6129 0.518919H14.9677L14.9677 10.3926C16.129 10.5217 17.0323 11.5116 17.0323 12.7135C17.0323 14.0032 15.9924 15.0486 14.7097 15.0486C13.427 15.0486 12.3871 14.0032 12.3871 12.7135C12.3871 11.5116 13.2903 10.5217 14.4516 10.3926L14.4516 0.518919H13.9723C9.94788 0.518919 6.70968 3.622 6.70968 7.42054V48H6.19355V45.1459H0.516129V48H0V7.42054ZM0.516129 44.627H6.19355V42.0324H0.516129V44.627ZM0.516129 41.5135H6.19355V38.9189H0.516129V41.5135ZM0.516129 38.4H6.19355V35.8054H0.516129V38.4ZM0.516129 35.2865H6.19355V32.6919H0.516129V35.2865ZM0.516129 32.173H6.19355V29.5784H0.516129V32.173ZM0.516129 29.0595H6.19355V26.4649H0.516129V29.0595ZM0.516129 25.9459H6.19355V23.3514H0.516129V25.9459ZM0.516129 22.8324H6.19355V20.2378H0.516129V22.8324ZM0.516129 19.7189H6.19355V17.1243H0.516129V19.7189ZM0.516129 16.6054H6.19355V14.0108H0.516129V16.6054ZM0.516129 13.4919H6.19355V10.8973H0.516129V13.4919ZM0.516129 10.3784H6.19355V7.42054C6.19355 4.27844 8.23552 1.60488 11.11 0.518919H7.38064C3.58948 0.518919 0.516129 3.60888 0.516129 7.42054V10.3784ZM27.3548 0.518919L27.3548 34.2486H35.0968V0.593045C34.748 0.544219 34.391 0.518919 34.0276 0.518919H27.3548ZM36.89 0.518919C39.7645 1.60488 41.8065 4.27844 41.8065 7.42054V10.3784H47.4839V7.42054C47.4839 3.60888 44.4105 0.518919 40.6194 0.518919H36.89ZM47.4839 10.8973H41.8065V13.4919H47.4839V10.8973ZM47.4839 14.0108H41.8065V16.6054H47.4839V14.0108ZM47.4839 17.1243H41.8065V19.7189H47.4839V17.1243ZM47.4839 20.2378H41.8065V22.8324H47.4839V20.2378ZM47.4839 23.3514H41.8065V25.9459H47.4839V23.3514ZM47.4839 26.4649H41.8065V29.0595H47.4839V26.4649ZM47.4839 29.5784H41.8065V32.173H47.4839V29.5784ZM47.4839 32.6919H41.8065V35.2865H47.4839V32.6919ZM47.4839 35.8054H41.8065V38.4H47.4839V35.8054ZM47.4839 38.9189H41.8065V41.5135H47.4839V38.9189ZM47.4839 42.0324H41.8065V44.627H47.4839V42.0324ZM14.7097 10.8973C13.712 10.8973 12.9032 11.7104 12.9032 12.7135C12.9032 13.7166 13.712 14.5297 14.7097 14.5297C15.7074 14.5297 16.5161 13.7166 16.5161 12.7135C16.5161 11.7104 15.7074 10.8973 14.7097 10.8973ZM19.871 10.8973C18.8733 10.8973 18.0645 11.7104 18.0645 12.7135C18.0645 13.7166 18.8733 14.5297 19.871 14.5297C20.8686 14.5297 21.6774 13.7166 21.6774 12.7135C21.6774 11.7104 20.8686 10.8973 19.871 10.8973Z" fill="#556575"/>
</g>
<defs>
<clipPath id="clip0_2454_4416">
<rect width="48" height="48" fill="white"/>
</clipPath>
</defs>
</svg>
