<svg width="48" height="48" viewBox="0 0 48 48" fill="none" xmlns="http://www.w3.org/2000/svg">
<path fill-rule="evenodd" clip-rule="evenodd" d="M12 0H18.7799V1.71841H30.2201V0H37V48H30.2201V46.3007H18.7799V48H12V0ZM18.248 1.71841H18.2396V46.3007H18.248V47.4839H12.5319V0.516129H18.248V1.71841ZM18.7799 45.7845H30.2183V2.23454H18.7799V45.7845ZM30.752 0.516129V47.4839H36.4681V0.516129H30.752ZM26.3879 11.1745L24.9909 9.34758L25.4181 9.04005L27.2465 11.4312L25.4187 13.8402L24.9903 13.5342L26.3891 11.6907H21.2137V11.1745H26.3879ZM26.3919 24.2384L24.9903 22.3912L25.4187 22.0852L27.246 24.4936L25.4187 26.9019L24.9903 26.5959L26.3875 24.7545H21.2137V24.2384H26.3919ZM26.3889 37.3022L24.9903 35.4589L25.4187 35.1529L27.246 37.5613L25.4187 39.9696L24.9903 39.6636L26.3905 37.8183H21.2137V37.3022H26.3889Z" fill="#556575"/>
</svg>
