<svg width="48" height="48" viewBox="0 0 48 48" fill="none" xmlns="http://www.w3.org/2000/svg">
<g clip-path="url(#clip0_2454_4416)">
<path fill-rule="evenodd" clip-rule="evenodd" d="M1.03226 1.23599C1.03226 0.523945 1.66125 0 2.38326 0H8.45538C9.17736 0 9.80645 0.523924 9.80645 1.23599V2.24741C10.0628 2.41465 10.2703 2.68383 10.4254 3.00103C10.6914 3.54519 10.8387 4.29083 10.8387 5.13783V7.48387H10.3226V5.13783C10.3226 4.34261 10.1831 3.68063 9.9617 3.22772C9.91215 3.12637 9.86016 3.03826 9.80645 2.96249V7.56129C9.80645 8.77569 8.84234 9.80645 7.65585 9.80645H3.18276C1.99625 9.80645 1.03226 8.77567 1.03226 7.56129V2.96249C0.978552 3.03826 0.926559 3.12637 0.877009 3.22772C0.655583 3.68063 0.516129 4.34261 0.516129 5.13783V7.48387H0V5.13783C0 4.29083 0.147291 3.54519 0.413328 3.00103C0.568403 2.68383 0.77594 2.41465 1.03226 2.24741V1.23599ZM1.54839 2.58764V7.56129C1.54839 8.51466 2.30475 9.29032 3.18276 9.29032H7.65585C8.53387 9.29032 9.29032 8.51464 9.29032 7.56129V2.58764C9.26149 2.58294 9.23278 2.58065 9.20429 2.58065H1.63442C1.60593 2.58065 1.57722 2.58294 1.54839 2.58764ZM9.29032 2.06788C9.26202 2.06565 9.23334 2.06452 9.20429 2.06452H1.63442C1.60537 2.06452 1.57669 2.06565 1.54839 2.06788V1.23599C1.54839 0.861456 1.89085 0.516129 2.38326 0.516129H8.45538C8.94781 0.516129 9.29032 0.861478 9.29032 1.23599V2.06788ZM13.4194 1.23599C13.4194 0.523945 14.0483 0 14.7704 0H20.8425C21.5645 0 22.1935 0.523924 22.1935 1.23599V2.24741C22.4499 2.41465 22.6574 2.68383 22.8125 3.00103C23.0785 3.54519 23.2258 4.29083 23.2258 5.13783V7.48387H22.7097V5.13783C22.7097 4.34261 22.5702 3.68063 22.3488 3.22772C22.2992 3.12637 22.2473 3.03826 22.1935 2.96249V7.56129C22.1935 8.77569 21.2294 9.80645 20.0429 9.80645H15.5699C14.3833 9.80645 13.4194 8.77567 13.4194 7.56129V2.96249C13.3656 3.03826 13.3137 3.12637 13.2641 3.22772C13.0427 3.68063 12.9032 4.34261 12.9032 5.13783V7.48387H12.3871V5.13783C12.3871 4.29083 12.5344 3.54519 12.8004 3.00103C12.9555 2.68383 13.163 2.41465 13.4194 2.24741V1.23599ZM13.9355 2.58764V7.56129C13.9355 8.51466 14.6918 9.29032 15.5699 9.29032H20.0429C20.921 9.29032 21.6774 8.51464 21.6774 7.56129V2.58764C21.6486 2.58294 21.6199 2.58065 21.5914 2.58065H14.0215C13.993 2.58065 13.9643 2.58294 13.9355 2.58764ZM21.6774 2.06788C21.6491 2.06565 21.6204 2.06452 21.5914 2.06452H14.0215C13.9925 2.06452 13.9638 2.06565 13.9355 2.06788V1.23599C13.9355 0.861456 14.2779 0.516129 14.7704 0.516129H20.8425C21.3349 0.516129 21.6774 0.861478 21.6774 1.23599V2.06788ZM25.8065 1.23599C25.8065 0.523945 26.4354 0 27.1575 0H33.2296C33.9516 0 34.5806 0.523924 34.5806 1.23599V2.24741C34.837 2.41465 35.0445 2.68383 35.1996 3.00103C35.4656 3.54519 35.6129 4.29083 35.6129 5.13783V7.48387H35.0968V5.13783C35.0968 4.34261 34.9573 3.68063 34.7359 3.22772C34.6863 3.12637 34.6344 3.03826 34.5806 2.96249V7.56129C34.5806 8.77569 33.6165 9.80645 32.43 9.80645H27.957C26.7704 9.80645 25.8065 8.77567 25.8065 7.56129V2.96249C25.7527 3.03826 25.7008 3.12637 25.6512 3.22772C25.4298 3.68063 25.2903 4.34261 25.2903 5.13783V7.48387H24.7742V5.13783C24.7742 4.29083 24.9215 3.54519 25.1875 3.00103C25.3426 2.68383 25.5501 2.41465 25.8065 2.24741V1.23599ZM26.3226 2.58764V7.56129C26.3226 8.51466 27.0789 9.29032 27.957 9.29032H32.43C33.3081 9.29032 34.0645 8.51464 34.0645 7.56129V2.58764C34.0357 2.58294 34.007 2.58065 33.9785 2.58065H26.4086C26.3801 2.58065 26.3514 2.58294 26.3226 2.58764ZM34.0645 2.06788C34.0362 2.06565 34.0075 2.06452 33.9785 2.06452H26.4086C26.3796 2.06452 26.3509 2.06565 26.3226 2.06788V1.23599C26.3226 0.861456 26.665 0.516129 27.1575 0.516129H33.2296C33.722 0.516129 34.0645 0.861478 34.0645 1.23599V2.06788ZM38.1935 1.23599C38.1935 0.523946 38.8225 0 39.5445 0H45.6167C46.3387 0 46.9677 0.523924 46.9677 1.23599V2.24741C47.2241 2.41465 47.4316 2.68383 47.5867 3.00103C47.8527 3.54519 48 4.29083 48 5.13783V7.48387H47.4839V5.13783C47.4839 4.34261 47.3444 3.68063 47.123 3.22772C47.0734 3.12637 47.0214 3.03826 46.9677 2.96249V7.56129C46.9677 8.77569 46.0036 9.80645 44.8171 9.80645H40.344C39.1575 9.80645 38.1935 8.77567 38.1935 7.56129V2.96249C38.1398 3.03826 38.0879 3.12637 38.0383 3.22772C37.8169 3.68063 37.6774 4.34261 37.6774 5.13783V7.48387H37.1613V5.13783C37.1613 4.29083 37.3086 3.54519 37.5746 3.00103C37.7297 2.68383 37.9372 2.41465 38.1935 2.24741V1.23599ZM38.7097 2.58764V7.56129C38.7097 8.51466 39.466 9.29032 40.344 9.29032H44.8171C45.6952 9.29032 46.4516 8.51464 46.4516 7.56129V2.58764C46.4228 2.58294 46.3941 2.58065 46.3656 2.58065H38.7957C38.7672 2.58065 38.7385 2.58294 38.7097 2.58764ZM46.4516 2.06788C46.4233 2.06565 46.3946 2.06452 46.3656 2.06452H38.7957C38.7667 2.06452 38.738 2.06565 38.7097 2.06788V1.23599C38.7097 0.861456 39.0521 0.516129 39.5445 0.516129H45.6167C46.1091 0.516129 46.4516 0.861477 46.4516 1.23599V2.06788ZM1.03226 15.6876C1.03226 14.9756 1.66125 14.4516 2.38326 14.4516H8.45538C9.17736 14.4516 9.80645 14.9755 9.80645 15.6876V16.699C10.0628 16.8663 10.2703 17.1354 10.4254 17.4526C10.6914 17.9968 10.8387 18.7424 10.8387 19.5894V21.9355H10.3226V19.5894C10.3226 18.7942 10.1831 18.1322 9.9617 17.6793C9.91215 17.578 9.86016 17.4899 9.80645 17.4141V22.0129C9.80645 23.2273 8.84234 24.2581 7.65585 24.2581H3.18276C1.99625 24.2581 1.03226 23.2273 1.03226 22.0129V17.4141C0.978552 17.4899 0.926559 17.578 0.877009 17.6793C0.655583 18.1322 0.516129 18.7942 0.516129 19.5894V21.9355H0V19.5894C0 18.7424 0.147291 17.9968 0.413328 17.4526C0.568403 17.1354 0.77594 16.8663 1.03226 16.699V15.6876ZM1.54839 17.0393V22.0129C1.54839 22.9663 2.30475 23.7419 3.18276 23.7419H7.65585C8.53387 23.7419 9.29032 22.9662 9.29032 22.0129V17.0393C9.26149 17.0345 9.23278 17.0323 9.20429 17.0323H1.63442C1.60593 17.0323 1.57722 17.0345 1.54839 17.0393ZM9.29032 16.5195C9.26202 16.5173 9.23334 16.5161 9.20429 16.5161H1.63442C1.60537 16.5161 1.57669 16.5173 1.54839 16.5195V15.6876C1.54839 15.3131 1.89085 14.9677 2.38326 14.9677H8.45538C8.94781 14.9677 9.29032 15.3131 9.29032 15.6876V16.5195ZM13.4194 15.6876C13.4194 14.9756 14.0483 14.4516 14.7704 14.4516H20.8425C21.5645 14.4516 22.1935 14.9755 22.1935 15.6876V16.699C22.4499 16.8663 22.6574 17.1354 22.8125 17.4526C23.0785 17.9968 23.2258 18.7424 23.2258 19.5894V21.9355H22.7097V19.5894C22.7097 18.7942 22.5702 18.1322 22.3488 17.6793C22.2992 17.578 22.2473 17.4899 22.1935 17.4141V22.0129C22.1935 23.2273 21.2294 24.2581 20.0429 24.2581H15.5699C14.3833 24.2581 13.4194 23.2273 13.4194 22.0129V17.4141C13.3656 17.4899 13.3137 17.578 13.2641 17.6793C13.0427 18.1322 12.9032 18.7942 12.9032 19.5894V21.9355H12.3871V19.5894C12.3871 18.7424 12.5344 17.9968 12.8004 17.4526C12.9555 17.1354 13.163 16.8663 13.4194 16.699V15.6876ZM13.9355 17.0393V22.0129C13.9355 22.9663 14.6918 23.7419 15.5699 23.7419H20.0429C20.921 23.7419 21.6774 22.9662 21.6774 22.0129V17.0393C21.6486 17.0345 21.6199 17.0323 21.5914 17.0323H14.0215C13.993 17.0323 13.9643 17.0345 13.9355 17.0393ZM21.6774 16.5195C21.6491 16.5173 21.6204 16.5161 21.5914 16.5161H14.0215C13.9925 16.5161 13.9638 16.5173 13.9355 16.5195V15.6876C13.9355 15.3131 14.2779 14.9677 14.7704 14.9677H20.8425C21.3349 14.9677 21.6774 15.3131 21.6774 15.6876V16.5195ZM25.8065 15.6876C25.8065 14.9756 26.4354 14.4516 27.1575 14.4516H33.2296C33.9516 14.4516 34.5806 14.9755 34.5806 15.6876V16.699C34.837 16.8663 35.0445 17.1354 35.1996 17.4526C35.4656 17.9968 35.6129 18.7424 35.6129 19.5894V21.9355H35.0968V19.5894C35.0968 18.7942 34.9573 18.1322 34.7359 17.6793C34.6863 17.578 34.6344 17.4899 34.5806 17.4141V22.0129C34.5806 23.2273 33.6165 24.2581 32.43 24.2581H27.957C26.7704 24.2581 25.8065 23.2273 25.8065 22.0129V17.4141C25.7527 17.4899 25.7008 17.578 25.6512 17.6793C25.4298 18.1322 25.2903 18.7942 25.2903 19.5894V21.9355H24.7742V19.5894C24.7742 18.7424 24.9215 17.9968 25.1875 17.4526C25.3426 17.1354 25.5501 16.8663 25.8065 16.699V15.6876ZM26.3226 17.0393V22.0129C26.3226 22.9663 27.0789 23.7419 27.957 23.7419H32.43C33.3081 23.7419 34.0645 22.9662 34.0645 22.0129V17.0393C34.0357 17.0345 34.007 17.0323 33.9785 17.0323H26.4086C26.3801 17.0323 26.3514 17.0345 26.3226 17.0393ZM34.0645 16.5195C34.0362 16.5173 34.0075 16.5161 33.9785 16.5161H26.4086C26.3796 16.5161 26.3509 16.5173 26.3226 16.5195V15.6876C26.3226 15.3131 26.665 14.9677 27.1575 14.9677H33.2296C33.722 14.9677 34.0645 15.3131 34.0645 15.6876V16.5195ZM38.1935 15.6876C38.1935 14.9756 38.8225 14.4516 39.5445 14.4516H45.6167C46.3387 14.4516 46.9677 14.9755 46.9677 15.6876V16.699C47.2241 16.8663 47.4316 17.1354 47.5867 17.4526C47.8527 17.9968 48 18.7424 48 19.5894V21.9355H47.4839V19.5894C47.4839 18.7942 47.3444 18.1322 47.123 17.6793C47.0734 17.578 47.0214 17.4899 46.9677 17.4141V22.0129C46.9677 23.2273 46.0036 24.2581 44.8171 24.2581H40.344C39.1575 24.2581 38.1935 23.2273 38.1935 22.0129V17.4141C38.1398 17.4899 38.0879 17.578 38.0383 17.6793C37.8169 18.1322 37.6774 18.7942 37.6774 19.5894V21.9355H37.1613V19.5894C37.1613 18.7424 37.3086 17.9968 37.5746 17.4526C37.7297 17.1354 37.9372 16.8663 38.1935 16.699V15.6876ZM38.7097 17.0393V22.0129C38.7097 22.9663 39.466 23.7419 40.344 23.7419H44.8171C45.6952 23.7419 46.4516 22.9662 46.4516 22.0129V17.0393C46.4228 17.0345 46.3941 17.0323 46.3656 17.0323H38.7957C38.7672 17.0323 38.7385 17.0345 38.7097 17.0393ZM46.4516 16.5195C46.4233 16.5173 46.3946 16.5161 46.3656 16.5161H38.7957C38.7667 16.5161 38.738 16.5173 38.7097 16.5195V15.6876C38.7097 15.3131 39.0521 14.9677 39.5445 14.9677H45.6167C46.1091 14.9677 46.4516 15.3131 46.4516 15.6876V16.5195ZM1.03226 30.1392C1.03226 29.4272 1.66125 28.9032 2.38326 28.9032H8.45538C9.17736 28.9032 9.80645 29.4271 9.80645 30.1392V31.1506C10.0628 31.3179 10.2703 31.5871 10.4254 31.9043C10.6914 32.4484 10.8387 33.1941 10.8387 34.0411V36.3871H10.3226V34.0411C10.3226 33.2458 10.1831 32.5839 9.9617 32.1309C9.91215 32.0296 9.86016 31.9415 9.80645 31.8657V36.4645C9.80645 37.6789 8.84234 38.7097 7.65585 38.7097H3.18276C1.99625 38.7097 1.03226 37.6789 1.03226 36.4645V31.8657C0.978552 31.9415 0.926559 32.0296 0.877009 32.1309C0.655583 32.5839 0.516129 33.2458 0.516129 34.0411V36.3871H0V34.0411C0 33.1941 0.147291 32.4484 0.413328 31.9043C0.568403 31.5871 0.77594 31.3179 1.03226 31.1506V30.1392ZM1.54839 31.4909V36.4645C1.54839 37.4179 2.30475 38.1935 3.18276 38.1935H7.65585C8.53387 38.1935 9.29032 37.4179 9.29032 36.4645V31.4909C9.26149 31.4862 9.23278 31.4839 9.20429 31.4839H1.63442C1.60593 31.4839 1.57722 31.4862 1.54839 31.4909ZM9.29032 30.9711C9.26202 30.9689 9.23334 30.9677 9.20429 30.9677H1.63442C1.60537 30.9677 1.57669 30.9689 1.54839 30.9711V30.1392C1.54839 29.7647 1.89085 29.4194 2.38326 29.4194H8.45538C8.94781 29.4194 9.29032 29.7647 9.29032 30.1392V30.9711ZM13.4194 30.1392C13.4194 29.4272 14.0483 28.9032 14.7704 28.9032H20.8425C21.5645 28.9032 22.1935 29.4271 22.1935 30.1392V31.1506C22.4499 31.3179 22.6574 31.5871 22.8125 31.9043C23.0785 32.4484 23.2258 33.1941 23.2258 34.0411V36.3871H22.7097V34.0411C22.7097 33.2458 22.5702 32.5839 22.3488 32.1309C22.2992 32.0296 22.2473 31.9415 22.1935 31.8657V36.4645C22.1935 37.6789 21.2294 38.7097 20.0429 38.7097H15.5699C14.3833 38.7097 13.4194 37.6789 13.4194 36.4645V31.8657C13.3656 31.9415 13.3137 32.0296 13.2641 32.1309C13.0427 32.5839 12.9032 33.2458 12.9032 34.0411V36.3871H12.3871V34.0411C12.3871 33.1941 12.5344 32.4484 12.8004 31.9043C12.9555 31.5871 13.163 31.3179 13.4194 31.1506V30.1392ZM13.9355 31.4909V36.4645C13.9355 37.4179 14.6918 38.1935 15.5699 38.1935H20.0429C20.921 38.1935 21.6774 37.4179 21.6774 36.4645V31.4909C21.6486 31.4862 21.6199 31.4839 21.5914 31.4839H14.0215C13.993 31.4839 13.9643 31.4862 13.9355 31.4909ZM21.6774 30.9711C21.6491 30.9689 21.6204 30.9677 21.5914 30.9677H14.0215C13.9925 30.9677 13.9638 30.9689 13.9355 30.9711V30.1392C13.9355 29.7647 14.2779 29.4194 14.7704 29.4194H20.8425C21.3349 29.4194 21.6774 29.7647 21.6774 30.1392V30.9711ZM25.8065 30.1392C25.8065 29.4272 26.4354 28.9032 27.1575 28.9032H33.2296C33.9516 28.9032 34.5806 29.4271 34.5806 30.1392V31.1506C34.837 31.3179 35.0445 31.5871 35.1996 31.9043C35.4656 32.4484 35.6129 33.1941 35.6129 34.0411V36.3871H35.0968V34.0411C35.0968 33.2458 34.9573 32.5839 34.7359 32.1309C34.6863 32.0296 34.6344 31.9415 34.5806 31.8657V36.4645C34.5806 37.6789 33.6165 38.7097 32.43 38.7097H27.957C26.7704 38.7097 25.8065 37.6789 25.8065 36.4645V31.8657C25.7527 31.9415 25.7008 32.0296 25.6512 32.1309C25.4298 32.5839 25.2903 33.2458 25.2903 34.0411V36.3871H24.7742V34.0411C24.7742 33.1941 24.9215 32.4484 25.1875 31.9043C25.3426 31.5871 25.5501 31.3179 25.8065 31.1506V30.1392ZM26.3226 31.4909V36.4645C26.3226 37.4179 27.0789 38.1935 27.957 38.1935H32.43C33.3081 38.1935 34.0645 37.4179 34.0645 36.4645V31.4909C34.0357 31.4862 34.007 31.4839 33.9785 31.4839H26.4086C26.3801 31.4839 26.3514 31.4862 26.3226 31.4909ZM34.0645 30.9711C34.0362 30.9689 34.0075 30.9677 33.9785 30.9677H26.4086C26.3796 30.9677 26.3509 30.9689 26.3226 30.9711V30.1392C26.3226 29.7647 26.665 29.4194 27.1575 29.4194H33.2296C33.722 29.4194 34.0645 29.7647 34.0645 30.1392V30.9711ZM38.1935 30.1392C38.1935 29.4272 38.8225 28.9032 39.5445 28.9032H45.6167C46.3387 28.9032 46.9677 29.4271 46.9677 30.1392V31.1506C47.2241 31.3179 47.4316 31.5871 47.5867 31.9043C47.8527 32.4484 48 33.1941 48 34.0411V36.3871H47.4839V34.0411C47.4839 33.2458 47.3444 32.5839 47.123 32.1309C47.0734 32.0296 47.0214 31.9415 46.9677 31.8657V36.4645C46.9677 37.6789 46.0036 38.7097 44.8171 38.7097H40.344C39.1575 38.7097 38.1935 37.6789 38.1935 36.4645V31.8657C38.1398 31.9415 38.0879 32.0296 38.0383 32.1309C37.8169 32.5839 37.6774 33.2458 37.6774 34.0411V36.3871H37.1613V34.0411C37.1613 33.1941 37.3086 32.4484 37.5746 31.9043C37.7297 31.5871 37.9372 31.3179 38.1935 31.1506V30.1392ZM38.7097 31.4909V36.4645C38.7097 37.4179 39.466 38.1935 40.344 38.1935H44.8171C45.6952 38.1935 46.4516 37.4179 46.4516 36.4645V31.4909C46.4228 31.4862 46.3941 31.4839 46.3656 31.4839H38.7957C38.7672 31.4839 38.7385 31.4862 38.7097 31.4909ZM46.4516 30.9711C46.4233 30.9689 46.3946 30.9677 46.3656 30.9677H38.7957C38.7667 30.9677 38.738 30.9689 38.7097 30.9711V30.1392C38.7097 29.7647 39.0521 29.4194 39.5445 29.4194H45.6167C46.1091 29.4194 46.4516 29.7647 46.4516 30.1392V30.9711ZM5.19779 46.4542C8.79586 46.9682 14.7188 47.4839 24 47.4839C33.2812 47.4839 39.2041 46.9682 42.8022 46.4542C44.6011 46.1972 45.8181 45.9408 46.5826 45.7496C46.9648 45.6541 47.2337 45.5749 47.4056 45.5202C47.4916 45.4929 47.5532 45.4716 47.5926 45.4576C47.6123 45.4505 47.6265 45.4453 47.6353 45.4419L47.6446 45.4384L47.6463 45.4377C47.6462 45.4378 47.6461 45.4378 47.7419 45.6774C47.8378 45.917 47.8376 45.9171 47.8374 45.9172L47.8357 45.9179L47.8317 45.9194L47.8178 45.9247C47.806 45.9292 47.7889 45.9355 47.7662 45.9436C47.721 45.9598 47.6536 45.9829 47.5621 46.012C47.3792 46.0703 47.0997 46.1524 46.7078 46.2504C45.9238 46.4463 44.6892 46.706 42.8752 46.9651C39.2475 47.4834 33.2994 48 24 48C14.7006 48 8.75252 47.4834 5.12479 46.9651C3.31078 46.706 2.07616 46.4463 1.29225 46.2504C0.900258 46.1524 0.620824 46.0703 0.437883 46.012C0.346407 45.9829 0.279037 45.9598 0.233768 45.9436C0.211133 45.9355 0.19402 45.9292 0.18218 45.9247L0.168342 45.9194L0.164329 45.9179L0.163038 45.9173C0.162854 45.9173 0.162222 45.917 0.258065 45.6774C0.353907 45.4378 0.353782 45.4378 0.353676 45.4377L0.355411 45.4384L0.364695 45.4419C0.37352 45.4453 0.387658 45.4505 0.407361 45.4576C0.446769 45.4716 0.508432 45.4929 0.594375 45.5202C0.766272 45.5749 1.03523 45.6541 1.41743 45.7496C2.1819 45.9408 3.3989 46.1972 5.19779 46.4542Z" fill="#556575"/>
</g>
<defs>
<clipPath id="clip0_2454_4416">
<rect width="48" height="48" fill="white"/>
</clipPath>
</defs>
</svg>
