<svg width="48" height="48" viewBox="0 0 48 48" fill="none" xmlns="http://www.w3.org/2000/svg">
<path fill-rule="evenodd" clip-rule="evenodd" d="M26.6531 0H36.0854V7.94149H44.0473V16.8471H36.0854V23.7485V24.1189V31.7383V32.1098V39.6177V39.9893V47.4815H45V47.9976H36.0854H26.6531H18.3401V47.4815H26.6531V24.2646V23.8885V16.8471H19.5686H19.1783H11.5908V30.1842C11.6771 30.2109 11.7875 30.2475 11.9149 30.2953C12.2244 30.4114 12.639 30.5949 13.0555 30.8647C13.8875 31.4037 14.757 32.3096 14.757 33.7238C14.757 35.0845 14.2668 35.9992 13.513 36.5596C12.7706 37.1115 11.8114 37.2908 10.92 37.2667L10.9153 37.2665C10.4602 37.2466 10.0147 37.1325 9.60838 36.9322C9.2021 36.7319 8.84436 36.4498 8.55877 36.1049C8.2732 35.7599 8.06629 35.3599 7.95159 34.9314C7.8369 34.503 7.817 34.0557 7.89321 33.6193L8.42081 33.705C8.35707 34.07 8.37372 34.4441 8.46963 34.8024C8.56554 35.1607 8.73849 35.4949 8.97685 35.7828C9.2152 36.0707 9.5135 36.3058 9.85188 36.4726C10.1896 36.6391 10.5595 36.7339 10.9373 36.7508C11.7549 36.7725 12.5757 36.6047 13.1864 36.1508C13.7862 35.7049 14.222 34.9541 14.222 33.7238C14.222 32.5472 13.5084 31.7798 12.7573 31.2932C12.3822 31.0503 12.0053 30.8829 11.7211 30.7764C11.5794 30.7232 11.4618 30.6856 11.3806 30.6614C11.34 30.6494 11.3085 30.6407 11.2877 30.6352L11.2648 30.6292L11.2597 30.6279L11.0558 30.5793V16.8471H3V7.94149H11.2401H11.6242H19.3292H19.7133H26.6531V0ZM26.3356 8.45761H19.7133V15.8927L26.3356 8.45761ZM19.1783 16.3309V8.85591L11.9708 16.3309H19.1783ZM11.6242 15.9326L18.8316 8.45761H11.6242V15.9326ZM10.7425 8.45761H3.53503V15.9326L10.7425 8.45761ZM3.88169 16.3309H11.0558V15.927H11.0891V8.85591L3.88169 16.3309ZM20.0283 16.3309H26.6531V8.89305L20.0283 16.3309ZM27.1882 16.8471V23.4424L35.0981 16.8471H27.1882ZM35.5503 17.1522L27.6392 23.7485H35.5503V17.1522ZM35.1378 24.2646H27.1882V31.4023L35.1378 24.2646ZM27.1882 32.2545V39.2896L35.1309 32.2545H27.1882ZM35.5503 32.5837L27.6089 39.6177H35.5503V32.5837ZM35.13 40.1338H27.1882V47.1554L35.13 40.1338ZM35.5503 47.4815H27.6112L35.5503 40.4623V47.4815ZM35.5503 31.7383V24.5993L27.5993 31.7383H35.5503ZM36.4199 16.3309H43.5122V8.84399L36.4199 16.3309ZM43.1535 8.45761H36.0854V15.919L43.1535 8.45761ZM35.5503 7.94149H27.1882V0.516129H35.5503V7.94149ZM35.1614 8.45761H27.1882V15.9759L35.1614 8.45761ZM27.577 16.3309H35.5503V8.81267L27.577 16.3309Z" fill="#556575"/>
</svg>
