<svg width="48" height="48" viewBox="0 0 48 48" fill="none" xmlns="http://www.w3.org/2000/svg">
<g clip-path="url(#clip0_2454_4416)">
<path fill-rule="evenodd" clip-rule="evenodd" d="M48 0.516129H0V0H48V0.516129ZM1.35301 17.2986L47.1091 5.17008L47.2441 5.66863L1.48804 17.7971L2.9759 18.6469C3.10067 18.7181 3.14342 18.876 3.07139 18.9994C2.99935 19.1228 2.8398 19.1651 2.71503 19.0939L0.681754 17.9326C0.556982 17.8613 0.514232 17.7035 0.586269 17.5801L1.76018 15.5686C1.83222 15.4452 1.99176 15.4029 2.11654 15.4742C2.24131 15.5454 2.28406 15.7033 2.21202 15.8267L1.35301 17.2986ZM1.35301 23.4921L47.1091 11.3636L47.2441 11.8622L1.48804 23.9907L2.9759 24.8404C3.10067 24.9117 3.14342 25.0695 3.07139 25.193C2.99935 25.3164 2.8398 25.3587 2.71503 25.2874L0.681754 24.1261C0.556982 24.0549 0.514232 23.897 0.586269 23.7736L1.76018 21.7622C1.83222 21.6388 1.99176 21.5965 2.11654 21.6677C2.24131 21.739 2.28406 21.8968 2.21202 22.0203L1.35301 23.4921ZM47.3101 17.583C47.4349 17.6543 47.4776 17.8121 47.4056 17.9356L46.2317 19.947C46.1596 20.0704 46.0001 20.1127 45.8753 20.0414C45.7505 19.9702 45.7078 19.8124 45.7798 19.6889L46.6388 18.2171L1.54697 30.1695L2.9759 30.9856C3.10067 31.0569 3.14342 31.2147 3.07139 31.3381C2.99935 31.4615 2.8398 31.5038 2.71503 31.4326L0.681754 30.2713C0.556982 30.2 0.514232 30.0422 0.586269 29.9188L1.76018 27.9073C1.83222 27.7839 1.99176 27.7416 2.11654 27.8129C2.24131 27.8842 2.28406 28.042 2.21202 28.1654L1.35301 29.6373L46.4449 17.6849L45.0159 16.8687C44.8912 16.7975 44.8484 16.6396 44.9205 16.5162C44.9925 16.3928 45.152 16.3505 45.2768 16.4218L47.3101 17.583ZM47.3101 23.7282C47.4349 23.7995 47.4776 23.9573 47.4056 24.0807L46.2317 26.0921C46.1596 26.2156 46.0001 26.2579 45.8753 26.1866C45.7505 26.1153 45.7078 25.9575 45.7798 25.8341L46.6388 24.3622L0.882735 36.4907L0.747699 35.9922L46.5038 23.8637L45.0159 23.0139C44.8912 22.9426 44.8484 22.7848 44.9205 22.6614C44.9925 22.5379 45.152 22.4957 45.2768 22.5669L47.3101 23.7282ZM47.3101 29.9218C47.4349 29.993 47.4776 30.1509 47.4056 30.2743L46.2317 32.2857C46.1596 32.4091 46.0001 32.4514 45.8753 32.3802C45.7505 32.3089 45.7078 32.1511 45.7798 32.0276L46.6388 30.5558L0.882735 42.6843L0.747699 42.1857L46.5038 30.0572L45.0159 29.2074C44.8912 29.1362 44.8484 28.9784 44.9205 28.8549C44.9925 28.7315 45.152 28.6892 45.2768 28.7605L47.3101 29.9218ZM48 48H0V47.4839H48V48Z" fill="#556575"/>
</g>
<defs>
<clipPath id="clip0_2454_4416">
<rect width="48" height="48" fill="white"/>
</clipPath>
</defs>
</svg>
